<svg width="132" height="29" viewBox="0 0 132 29" fill="none" xmlns="http://www.w3.org/2000/svg">
<path fill-rule="evenodd" clip-rule="evenodd" d="M52.7296 5.13056C48.9596 4.89548 45.1702 7.33111 44.3488 11.1166C43.4184 14.3326 43.8812 18.2296 46.2363 20.7331C50.6944 25.4662 59.9692 23.5516 60.4926 16.4508H57.8444C57.2847 20.2629 53.7618 21.7897 50.2995 20.6604C47.6973 19.6207 46.4907 16.7125 46.527 14.0563C46.6312 11.4026 47.9129 8.41926 50.6629 7.63404C53.9047 6.51438 57.4131 8.49196 57.8807 11.9527H60.5289C60.0928 7.86185 56.834 5.02635 52.7296 5.13299V5.13056Z" fill="#00587E"/>
<path fill-rule="evenodd" clip-rule="evenodd" d="M73.7022 13.7873C73.2952 11.1966 70.8044 9.95333 68.3694 10.0503C65.6437 9.94606 62.9155 11.3396 62.5302 14.2599H64.9604C65.1058 11.7176 69.0527 11.7831 70.6906 12.7719C71.2478 13.1499 71.5216 13.8164 71.4538 14.478C71.1776 15.2075 70.2908 15.3529 69.6027 15.3844C67.3809 15.6122 64.5073 15.222 62.8937 17.0905C61.3527 19.199 62.3437 22.3592 64.8514 23.1493C66.1064 23.491 67.5723 23.3432 68.8055 22.97C70.0146 22.5216 70.7439 21.2687 71.3544 20.2072C71.2503 20.0981 71.1873 19.9503 71.1873 19.7879C71.1873 19.4535 71.4586 19.182 71.793 19.182C71.9069 19.182 72.011 19.2135 72.1031 19.2693C72.1104 19.2717 72.1201 19.2741 72.1273 19.279C72.1443 19.2911 72.1613 19.3056 72.1782 19.3202C72.1903 19.3299 72.2 19.3371 72.2097 19.3468C72.2218 19.3614 72.2364 19.3735 72.2461 19.388C72.3406 19.4947 72.3987 19.6352 72.3987 19.7879C72.3987 19.817 72.3963 19.8437 72.3914 19.8703C72.389 19.88 72.389 19.8897 72.3866 19.8994C72.3745 19.9769 72.3454 20.0472 72.3042 20.1102C72.2824 20.149 72.2533 20.1854 72.2218 20.2169C72.2097 20.2314 72.1952 20.246 72.1782 20.2556C72.1492 20.2823 72.1176 20.3041 72.0813 20.3211C72.0643 20.3308 72.0474 20.3405 72.028 20.3453C72.0183 20.3502 72.0062 20.355 71.9941 20.3574C71.9795 20.3623 71.965 20.3671 71.948 20.372C71.8996 20.3865 71.8463 20.3938 71.793 20.3938C71.7663 20.3938 71.7373 20.3914 71.7106 20.3889C71.4077 21.1935 71.3956 22.3399 71.4538 23.1857H73.8113C73.7143 21.7509 74.0027 15.0475 73.7022 13.7873ZM69.4597 20.5004C68.3452 21.1596 66.7897 21.5037 65.5758 20.973C64.1051 20.3259 64.1318 18.3895 65.6485 17.8176C67.4439 17.1051 69.8886 17.534 71.4174 16.2205C71.4659 17.8249 70.9474 19.674 69.4597 20.5004Z" fill="#00587E"/>
<path fill-rule="evenodd" clip-rule="evenodd" d="M131.859 13.7873C131.452 11.1966 128.961 9.95333 126.526 10.0503C123.798 9.94606 121.072 11.3396 120.687 14.2599H123.115C123.26 11.7176 127.207 11.7831 128.848 12.7719C129.405 13.1499 129.679 13.8164 129.611 14.478C129.332 15.2075 128.448 15.3529 127.76 15.3844C125.538 15.6122 122.664 15.222 121.048 17.0905C119.51 19.199 120.501 22.3592 123.008 23.1493C124.263 23.491 125.729 23.3432 126.963 22.97C128.174 22.5216 128.889 21.2735 129.499 20.212C129.497 20.2096 129.497 20.2072 129.494 20.2048C129.395 20.0981 129.335 19.9527 129.335 19.7952C129.335 19.4607 129.606 19.1893 129.94 19.1893C130.275 19.1893 130.546 19.4607 130.546 19.7952C130.546 20.1296 130.304 20.372 129.996 20.3986C129.979 20.4035 129.952 20.4035 129.914 20.4011C129.911 20.4011 129.906 20.4011 129.904 20.3986C129.892 20.3986 129.877 20.3962 129.863 20.3938C129.557 21.2008 129.553 22.335 129.611 23.1857H131.968C131.871 21.7509 132.16 15.0475 131.859 13.7873ZM127.614 20.5004C126.502 21.1596 124.944 21.5037 123.733 20.973C122.262 20.3259 122.286 18.3895 123.805 17.8176C125.601 17.1051 128.043 17.534 129.574 16.2205C129.623 17.8249 129.104 19.674 127.614 20.5004Z" fill="#00587E"/>
<path fill-rule="evenodd" clip-rule="evenodd" d="M100.318 16.4968C100.252 13.4214 98.0402 10.0309 94.7039 10.06C93.0442 10.0672 91.2707 10.9397 90.5462 12.4811C90.5365 12.498 90.4953 12.5925 90.4953 12.5925H90.4929C90.5704 12.6943 90.6189 12.8228 90.6189 12.9633C90.6189 13.1621 90.522 13.339 90.3742 13.448C90.2748 13.5256 90.1489 13.5692 90.0132 13.5692C89.9841 13.5692 89.955 13.5692 89.9284 13.5644C89.9235 13.5619 89.9211 13.5619 89.9163 13.5619C89.6279 13.5159 89.4074 13.2638 89.4074 12.9633C89.4074 12.8882 89.422 12.8131 89.4486 12.7476C89.4608 12.7089 89.4801 12.6749 89.5019 12.641C89.5092 12.6265 89.5213 12.6119 89.531 12.5998C89.64 12.452 89.8145 12.3575 90.0132 12.3575C90.0301 12.3575 90.0471 12.3575 90.064 12.3599L90.1682 11.9745V10.3799H87.7744V28.086H90.1682V21.4819C90.1367 21.2881 90.0519 21.0918 89.9914 20.9027C89.9381 20.7912 89.8823 20.6652 89.8048 20.5756C89.8 20.5731 89.7975 20.5731 89.7927 20.5731C89.5044 20.5271 89.2839 20.275 89.2839 19.9745C89.2839 19.8994 89.2984 19.8243 89.3251 19.7588C89.3372 19.7201 89.3566 19.6861 89.3784 19.6522C89.3856 19.6377 89.3953 19.6255 89.4074 19.611C89.5165 19.4632 89.6909 19.3687 89.8896 19.3687C90.224 19.3687 90.4953 19.6401 90.4953 19.9745C90.4953 20.1733 90.3984 20.3502 90.2506 20.4592C90.2482 20.4641 90.2458 20.4689 90.2433 20.4738C90.3451 20.7476 90.5196 21.0069 90.6698 21.2638C91.0696 21.9739 91.7964 22.4489 92.5015 22.827C94.212 23.7116 96.3684 23.3917 97.844 22.1872C99.5376 20.8494 100.41 18.6295 100.318 16.4968ZM97.5314 18.724C97.0008 20.2969 95.6561 21.2057 94.0134 21.2275C92.3585 21.1887 91.0284 20.0085 90.459 18.5059C89.4414 15.7334 91.135 12.1054 94.3768 12.3017C97.4757 12.5223 98.4739 16.1866 97.5314 18.724Z" fill="#00587E"/>
<path fill-rule="evenodd" clip-rule="evenodd" d="M90.0495 16.1842C90.1004 16.189 90.1537 16.1915 90.2046 16.1939C90.4566 14.0685 92 12.1563 94.3793 12.2993C96.6083 12.4568 97.7495 14.3981 97.8658 16.4193C98.6823 16.4047 99.4964 16.3853 100.315 16.3756C100.197 13.3317 98.0015 10.0285 94.7063 10.0576C93.0467 10.0648 91.2731 10.9373 90.5487 12.4786C90.539 12.4956 90.4978 12.5901 90.4978 12.5901H90.4953C90.5729 12.6919 90.6213 12.8204 90.6213 12.9609C90.6213 13.1596 90.5244 13.3366 90.3766 13.4456C90.2773 13.5232 90.1513 13.5668 90.0156 13.5668C89.9865 13.5668 89.9575 13.5668 89.9308 13.562C89.926 13.5595 89.9235 13.5595 89.9187 13.5595C89.6304 13.5135 89.4099 13.2614 89.4099 12.9609C89.4099 12.8858 89.4244 12.8107 89.4511 12.7452C89.4632 12.7065 89.4826 12.6725 89.5044 12.6386C89.5117 12.6241 89.5238 12.6095 89.5335 12.5974C89.6425 12.4496 89.8169 12.355 90.0156 12.355C90.0326 12.355 90.0495 12.355 90.0665 12.3575L90.1707 11.9721V10.3775H87.7769V16.0121C88.5328 16.0218 89.2912 16.1236 90.052 16.1842H90.0495Z" fill="#00587E"/>
<path fill-rule="evenodd" clip-rule="evenodd" d="M119.699 10.0527V12.5198C118.938 12.4374 118.022 12.5659 117.266 12.6652C116.912 12.8034 116.578 12.9197 116.251 13.1354C115.955 13.385 115.602 13.6977 115.417 14.0442C115.178 14.5047 115.025 15.1009 114.909 15.605C114.792 16.1842 114.846 22.5968 114.838 23.3699H112.406V10.3411H114.872C114.838 10.9979 114.85 11.9382 114.661 12.5732C114.349 12.5974 114.104 12.8567 114.104 13.1766C114.104 13.4965 114.376 13.7825 114.71 13.7825C115.044 13.7825 115.316 13.511 115.316 13.1766C115.316 12.973 115.216 12.7937 115.064 12.6846C115.381 12.1103 115.776 11.199 116.324 10.8137C117.305 10.1836 118.558 10.0503 119.699 10.0527Z" fill="#00587E"/>
<path fill-rule="evenodd" clip-rule="evenodd" d="M38.4516 2.0309C38.4516 3.15298 37.543 4.06179 36.4212 4.06179C35.5926 4.06179 34.8803 3.5674 34.5653 2.85489H18.2301V6.63798H16.7764V1.40079H34.4926C34.7567 0.586488 35.5199 0 36.4212 0C37.543 0 38.4516 0.908815 38.4516 2.0309Z" fill="#00587E"/>
<path d="M83.4761 7.76249C84.2535 7.76249 84.8838 7.13209 84.8838 6.35444C84.8838 5.57679 84.2535 4.94638 83.4761 4.94638C82.6986 4.94638 82.0684 5.57679 82.0684 6.35444C82.0684 7.13209 82.6986 7.76249 83.4761 7.76249Z" fill="#00587E"/>
<path fill-rule="evenodd" clip-rule="evenodd" d="M29.5957 7.36503C29.5957 8.48712 28.6871 9.39593 27.5653 9.39593C26.7004 9.39593 25.9614 8.85549 25.6706 8.09208H9.51233V12.5707H8.05859V6.63798H25.6706C25.9614 5.87458 26.7004 5.33414 27.5653 5.33414C28.6871 5.33414 29.5957 6.24295 29.5957 7.36503Z" fill="#00587E"/>
<path d="M21.0017 13.2978C21.0017 14.4174 20.0907 15.3287 18.9713 15.3287C18.1063 15.3287 17.3673 14.7858 17.0766 14.0248H0V12.5707H17.0766C17.3673 11.8073 18.1063 11.2669 18.9713 11.2669C20.0907 11.2669 21.0017 12.1757 21.0017 13.2978Z" fill="#00587E"/>
<path fill-rule="evenodd" clip-rule="evenodd" d="M38.4513 26.1496C38.4513 27.2717 37.5427 28.1805 36.4209 28.1805C35.5923 28.1805 34.88 27.6861 34.565 26.9736H16.6719V20.2726H18.1256V25.5195H34.4923C34.7564 24.7052 35.5196 24.1187 36.4209 24.1187C37.5427 24.1187 38.4513 25.0275 38.4513 26.1496Z" fill="#00587E"/>
<path fill-rule="evenodd" clip-rule="evenodd" d="M29.5957 19.548C29.5957 20.6677 28.6871 21.5765 27.5653 21.5765C26.698 21.5765 25.959 21.0336 25.6682 20.2726H8.05859V14.0248H9.51233V18.8185H25.6706C25.9638 18.0576 26.7004 17.5171 27.5653 17.5171C28.6871 17.5171 29.5957 18.4259 29.5957 19.548Z" fill="#00587E"/>
<path d="M79.3354 5.10147H76.9053V23.2051H79.3354V5.10147Z" fill="#00587E"/>
<path d="M84.6899 10.1617H82.2598V23.205H84.6899V10.1617Z" fill="#00587E"/>
<path fill-rule="evenodd" clip-rule="evenodd" d="M106.196 12.212V19.594C106.196 20.7622 106.831 20.9609 107.211 20.9851C107.247 20.9875 109.782 20.9851 109.782 20.9851V23.1881H107.209C107.095 23.1905 106.974 23.1929 106.838 23.1881C103.676 23.0742 103.763 19.594 103.763 19.594V12.212H101.408V10.2417H103.763V6.55072H106.196V10.2417H109.782V12.212H106.196Z" fill="#00587E"/>
<path d="M114.71 13.7776C115.044 13.7776 115.315 13.5064 115.315 13.1718C115.315 12.8371 115.044 12.5659 114.71 12.5659C114.375 12.5659 114.104 12.8371 114.104 13.1718C114.104 13.5064 114.375 13.7776 114.71 13.7776Z" fill="#00587E"/>
<path fill-rule="evenodd" clip-rule="evenodd" d="M129.904 20.3986C129.889 20.3986 129.877 20.3986 129.862 20.3962C129.877 20.3962 129.891 20.3986 129.904 20.3986Z" fill="#00587E"/>
</svg>
