<svg xmlns="http://www.w3.org/2000/svg" fill="none" viewBox="0 0 128 128">
<path d="M60.3359 102.136H114.817C115.697 99.4258 118.237 97.4731 121.237 97.4731C124.971 97.4734 127.996 100.499 127.996 104.234C127.996 107.969 124.971 110.994 121.237 110.995C118.479 110.995 116.107 109.349 115.059 106.977H55.4961V84.6704H60.3359V102.136ZM91.7607 34.9438C95.4949 34.9438 98.5194 37.9686 98.5195 41.7036C98.5195 45.4388 95.495 48.4644 91.7607 48.4644C88.8819 48.4643 86.4222 46.6655 85.4541 44.1245H31.666V59.0317H56.8457C57.8134 56.4906 60.273 54.692 63.1523 54.6919C66.8785 54.6919 69.911 57.7165 69.9111 61.4517C69.9111 65.1786 66.8786 68.2124 63.1523 68.2124C60.273 68.2123 57.8134 66.4047 56.8457 63.8716H31.666V79.8286H85.4541C86.4302 77.2959 88.8818 75.4966 91.7607 75.4966C95.495 75.4966 98.5195 78.5221 98.5195 82.2573C98.5195 85.9845 95.4949 89.0093 91.7607 89.0093C88.8737 89.0093 86.4133 87.2026 85.4453 84.6694H26.8271V63.8716H0.000976562V59.0317H26.8271V39.2837H85.4541C86.4221 36.7426 88.8817 34.9439 91.7607 34.9438ZM121.242 17.1851C124.976 17.1851 128.001 20.2107 128.001 23.9458C128.001 27.681 124.976 30.7065 121.242 30.7065C118.484 30.7065 116.113 29.0607 115.064 26.689H60.6875V39.2817H55.8486V21.8481H114.822C115.701 19.1376 118.242 17.1851 121.242 17.1851Z"/>
    <style>
        path { fill: #000; }
        @media (prefers-color-scheme: dark) {
            path { fill: #FFF; }
        }
    </style>
</svg>