<svg width="176" height="61" viewBox="0 0 176 61" fill="none" xmlns="http://www.w3.org/2000/svg">
<g clip-path="url(#clip0_16_436)">
<path d="M51.36 44.2905H43.57L41.2 38.5705H28.28L26.12 44.2905H18.5L30.14 15.4105H38.48L51.36 44.2905ZM34.47 22.2905L30.19 33.5405H39.08L34.47 22.2905Z" fill="#AEAEB2"/>
<path d="M79.4599 15.4105H85.7299V44.2905H78.5299V26.2905L70.7399 35.3505H69.6399L61.8499 26.2505V44.2505H54.6499V15.4105H60.9199L70.1899 26.1505L79.4599 15.4105Z" fill="#AEAEB2"/>
<path d="M103.97 15.4105C114.51 15.4105 119.97 21.9705 119.97 29.8905C119.97 38.1905 114.72 44.2905 103.2 44.2905H91.2202V15.4105H103.97ZM98.4202 39.0005H103.12C110.36 39.0005 112.52 34.0905 112.52 29.8505C112.52 24.8505 109.85 20.7005 103.04 20.7005H98.4202V39.0005Z" fill="#AEAEB2"/>
<path d="M149.14 22.2605H134.25L125.18 13.1805H158.22V46.2305L149.14 37.1505V22.2605Z" fill="#AEAEB2"/>
<path d="M134.24 37.1606V24.0806L124.9 33.4206V46.5106H137.98L147.32 37.1606H134.24Z" fill="#AEAEB2"/>
</g>
<defs>
<clipPath id="clip0_16_436">
<rect width="139.72" height="33.32" fill="white" transform="translate(18.5 13.1805)"/>
</clipPath>
</defs>
</svg>
