<svg width="176" height="61" viewBox="0 0 176 61" fill="none" xmlns="http://www.w3.org/2000/svg">
<g clip-path="url(#clip0_16_448)">
<path d="M65.266 32.6375C63.943 32.6375 62.7955 33.5555 62.485 34.8245H58.5295V31.6115H55.3165V29.681H58.5295V29.546V26.4815V25.1585V22.3775V21.959H55.3165V20.015H58.5295V16.802H62.485C62.6065 17.3285 62.8765 17.7875 63.241 18.152C63.754 18.665 64.4695 18.989 65.2525 18.989C66.0355 18.989 66.751 18.665 67.264 18.152C67.777 17.639 68.101 16.9235 68.101 16.1405C68.101 14.5745 66.8185 13.292 65.2525 13.292C63.9295 13.292 62.782 14.21 62.4715 15.479H58.516V12.266H55.303V8.55347H33.298V12.266H30.76H30.085V12.7925V15.479V16.802V19.4075V20.015H33.298V21.9455H30.76H30.085V25.1585H26.1295C25.819 23.876 24.6715 22.9715 23.3485 22.9715C21.7825 22.958 20.5 24.2405 20.5 25.82C20.5 26.603 20.824 27.3185 21.337 27.8315C21.85 28.3445 22.5655 28.6685 23.3485 28.6685C24.1315 28.6685 24.847 28.3445 25.36 27.8315C25.7245 27.467 25.9945 26.9945 26.116 26.4815H30.085V29.6945H33.298V31.625H30.76H30.085V32.084V34.8245V36.1475V38.6855V39.347H33.298V41.2775H30.76H30.085V44.4905H26.1295C25.819 43.208 24.6715 42.3035 23.3485 42.3035C21.7825 42.317 20.5 43.5995 20.5 45.1655C20.5 46.745 21.7825 48.014 23.3485 48.014C24.6715 48.014 25.819 47.096 26.1295 45.827H30.085V49.04H33.298V52.82H55.3165V49.04H58.489V41.291H55.3165V39.3605H58.5295V36.161H62.485C62.6065 36.6875 62.8765 37.1465 63.241 37.511C63.754 38.024 64.4695 38.348 65.2525 38.348C66.0355 38.348 66.751 38.024 67.264 37.511C67.777 36.998 68.101 36.2825 68.101 35.4995C68.1145 33.92 66.832 32.6375 65.266 32.6375Z" fill="#AEAEB2"/>
<path d="M83.1128 25.928C83.1128 27.1565 82.4918 27.7775 81.2633 27.7775H74.9588C73.7573 27.7775 73.1633 27.1565 73.1633 25.928V9.40402C73.1498 8.16202 73.7573 7.54102 74.9453 7.54102H81.2498C82.4783 7.54102 83.0993 8.16202 83.0993 9.40402V14.129H80.0888V10.133H76.1738V25.172H80.0888V20.9195H83.0993V25.928H83.1128Z" fill="#AEAEB2"/>
<path d="M95.6548 27.7775H92.6038V18.692H88.5133V27.7775H85.4893V7.54102H88.5133V15.884H92.6038V7.54102H95.6548V27.7775Z" fill="#AEAEB2"/>
<path d="M101.135 7.54102H98.1113V27.7775H101.135V7.54102Z" fill="#AEAEB2"/>
<path d="M113.393 18.557C113.393 19.8125 112.772 20.447 111.544 20.447H106.643V27.7775H103.619V7.54102H111.544C112.772 7.54102 113.393 8.16202 113.393 9.40402V18.557ZM110.342 10.133H106.643V17.8415H110.342V10.133Z" fill="#AEAEB2"/>
<path d="M125.233 25.928C125.233 27.1565 124.626 27.7775 123.397 27.7775H117.309C116.094 27.7775 115.486 27.1565 115.486 25.928V21.1085H118.51V25.226H122.209V21.257L116.148 15.5195C115.702 15.101 115.486 14.561 115.486 13.8995V9.40402C115.486 8.16202 116.094 7.54102 117.309 7.54102H123.397C124.626 7.54102 125.233 8.14852 125.233 9.37702V13.8995H122.209V10.0925H118.51V13.751L124.572 19.4615C125.017 19.88 125.233 20.42 125.233 21.1085V25.928Z" fill="#AEAEB2"/>
<path d="M83.4099 52.4825H80.4129L79.8054 48.6485H76.0119L75.4044 52.4825H72.4209V52.4285L76.3359 32.219H79.5219L83.4099 52.4825ZM79.3734 46.043L77.9019 36.917L76.4169 46.043H79.3734Z" fill="#AEAEB2"/>
<path d="M93.0492 52.4825H85.0977V32.246H88.1217V49.7825H93.0492V52.4825Z" fill="#AEAEB2"/>
<path d="M102.796 52.4825H94.8447V32.246H97.8687V49.7825H102.796V52.4825Z" fill="#AEAEB2"/>
<path d="M107.67 32.246H104.646V52.4825H107.67V32.246Z" fill="#AEAEB2"/>
<path d="M120.4 52.4825H117.403L116.796 48.6485H113.002L112.395 52.4825H109.411V52.4285L113.326 32.219H116.512L120.4 52.4825ZM116.364 46.043L114.892 36.917L113.407 46.043H116.364Z" fill="#AEAEB2"/>
<path d="M132.347 52.4825H129.701L124.855 39.752C124.99 40.373 125.044 40.859 125.044 41.21V52.4825H122.101V32.246H124.747L129.593 44.72C129.458 44.099 129.404 43.613 129.404 43.262V32.246H132.347V52.4825Z" fill="#AEAEB2"/>
<path d="M144.727 50.633C144.727 51.8615 144.106 52.4825 142.877 52.4825H136.573C135.371 52.4825 134.777 51.8615 134.777 50.633V34.109C134.777 32.867 135.371 32.246 136.573 32.246H142.877C144.106 32.246 144.727 32.867 144.727 34.109V38.834H141.716V34.838H137.801V49.877H141.716V45.6245H144.727V50.633Z" fill="#AEAEB2"/>
<path d="M155.5 52.4825H147.116V32.246H155.419V34.9325H150.14V40.832H154.69V43.4645H150.14V49.8095H155.5V52.4825Z" fill="#AEAEB2"/>
<path d="M65.2657 17.666C65.6842 17.666 66.0757 17.4905 66.3457 17.2205C66.6157 16.937 66.7912 16.559 66.7912 16.1405C66.7912 15.722 66.6157 15.3305 66.3457 15.0605C66.0757 14.7905 65.6842 14.615 65.2657 14.615C64.8472 14.615 64.4557 14.7905 64.1857 15.0605C63.9157 15.3305 63.7402 15.722 63.7402 16.1405C63.7402 16.559 63.9157 16.9505 64.1857 17.2205C64.4557 17.4905 64.8472 17.666 65.2657 17.666Z" fill="#AEAEB2"/>
<path d="M65.2657 37.025C65.6842 37.025 66.0757 36.8495 66.3457 36.5795C66.6157 36.296 66.7912 35.918 66.7912 35.4995C66.7912 35.081 66.6157 34.6895 66.3457 34.4195C66.0757 34.1495 65.6842 33.974 65.2657 33.974C64.8472 33.974 64.4557 34.1495 64.1857 34.4195C63.9157 34.6895 63.7402 35.081 63.7402 35.4995C63.7402 35.918 63.9157 36.3095 64.1857 36.5795C64.4557 36.8495 64.8472 37.025 65.2657 37.025Z" fill="#AEAEB2"/>
<path d="M57.2067 13.6024H52.1172V18.6919H57.2067V13.6024Z" fill="#F6F7F9"/>
<path d="M36.5114 23.2684H31.4219V28.3579H36.5114V23.2684Z" fill="#F6F7F9"/>
<path d="M36.5114 32.948H31.4219V38.0375H36.5114V32.948Z" fill="#AEAEB2"/>
<path d="M36.5114 42.6274H31.4219V47.7169H36.5114V42.6274Z" fill="#F6F7F9"/>
<path d="M57.2067 32.948H52.1172V38.0375H57.2067V32.948Z" fill="#F6F7F9"/>
<path d="M50.7806 40.9535H51.4556H53.9936V39.023H50.7806V31.274H51.4556H53.9936V29.3435H50.7806V21.5945H51.4556H53.9936V19.664H50.7806V11.915H51.4556H53.9936V9.52551H34.6211V11.915H37.8341V19.664H34.6211V21.5945H37.8341V29.3435H34.6211V31.274H37.8341V39.023H34.6211V40.9535H37.8341V48.689H34.6211V51.146H53.9936V48.689H50.7806V40.9535Z" fill="#AEAEB2"/>
<path d="M64.1857 15.0605C64.4557 14.7905 64.8472 14.615 65.2657 14.615C65.6842 14.615 66.0757 14.7905 66.3457 15.0605C66.6157 15.3305 66.7912 15.722 66.7912 16.1405C66.7912 16.559 66.6157 16.937 66.3457 17.2205C66.0757 17.4905 65.6842 17.666 65.2657 17.666C64.8472 17.666 64.4557 17.4905 64.1857 17.2205C63.9157 16.9505 63.7402 16.559 63.7402 16.1405C63.7402 15.722 63.9022 15.3305 64.1857 15.0605Z" fill="#AEAEB2"/>
<path d="M57.2067 13.6024H52.1172V18.6919H57.2067V13.6024Z" fill="#F6F7F9"/>
<path d="M36.5114 23.2684H31.4219V28.3579H36.5114V23.2684Z" fill="#F6F7F9"/>
<path d="M36.5114 32.948H31.4219V38.0375H36.5114V32.948Z" fill="#AEAEB2"/>
<path d="M36.5114 42.6274H31.4219V47.7169H36.5114V42.6274Z" fill="#F6F7F9"/>
<path d="M53.9936 51.146H34.6211V48.689H37.8341V40.9535H34.6211V39.023H37.8341V31.274H34.6211V29.3435H37.8341V21.5945H34.6211V19.664H37.8341V11.915H34.6211V9.52551H53.9936V11.915H51.4556H50.7806V19.664H53.9936V21.5945H51.4556H50.7806V29.3435H53.9936V31.274H51.4556H50.7806V39.023H53.9936V40.9535H51.4556H50.7806V48.689H53.9936V51.146Z" fill="#F6F7F9"/>
<path d="M57.2067 32.948H52.1172V38.0375H57.2067V32.948Z" fill="#F6F7F9"/>
<path d="M66.3457 36.5795C66.0757 36.8495 65.6842 37.025 65.2657 37.025C64.8472 37.025 64.4557 36.8495 64.1857 36.5795C63.9157 36.3095 63.7402 35.918 63.7402 35.4995C63.7402 35.081 63.9157 34.6895 64.1857 34.4195C64.4557 34.1495 64.8472 33.974 65.2657 33.974C65.6842 33.974 66.0757 34.1495 66.3457 34.4195C66.6157 34.6895 66.7912 35.081 66.7912 35.4995C66.7912 35.918 66.6157 36.296 66.3457 36.5795Z" fill="#AEAEB2"/>
</g>
<defs>
<clipPath id="clip0_16_448">
<rect width="135" height="45.279" fill="white" transform="translate(20.5 7.54102)"/>
</clipPath>
</defs>
</svg>
