<svg width="176" height="61" viewBox="0 0 176 61" fill="none" xmlns="http://www.w3.org/2000/svg">
<g clip-path="url(#clip0_16_421)">
<path d="M78.5807 30.7294C78.5807 36.6691 73.9341 41.046 68.2315 41.046C62.529 41.046 57.8823 36.6691 57.8823 30.7294C57.8823 24.7478 62.529 20.4127 68.2315 20.4127C73.9341 20.4127 78.5807 24.7478 78.5807 30.7294ZM74.0503 30.7294C74.0503 27.0176 71.3572 24.478 68.2315 24.478C65.1058 24.478 62.4127 27.0176 62.4127 30.7294C62.4127 34.4039 65.1058 36.9808 68.2315 36.9808C71.3572 36.9808 74.0503 34.3993 74.0503 30.7294Z" fill="#AEAEB2"/>
<path d="M100.907 30.7294C100.907 36.6691 96.2602 41.046 90.5577 41.046C84.8552 41.046 80.2085 36.6691 80.2085 30.7294C80.2085 24.7524 84.8552 20.4127 90.5577 20.4127C96.2602 20.4127 100.907 24.7478 100.907 30.7294ZM96.3765 30.7294C96.3765 27.0176 93.6834 24.478 90.5577 24.478C87.432 24.478 84.7389 27.0176 84.7389 30.7294C84.7389 34.4039 87.432 36.9808 90.5577 36.9808C93.6834 36.9808 96.3765 34.3993 96.3765 30.7294Z" fill="#AEAEB2"/>
<path d="M122.303 21.036V39.5576C122.303 47.1765 117.81 50.2882 112.498 50.2882C107.498 50.2882 104.489 46.9439 103.354 44.2089L107.298 42.567C108 44.2461 109.721 46.2276 112.494 46.2276C115.894 46.2276 118.001 44.1298 118.001 40.1809V38.6971H117.843C116.829 39.9483 114.875 41.0414 112.41 41.0414C107.252 41.0414 102.526 36.5482 102.526 30.7666C102.526 24.9431 107.252 20.4127 112.41 20.4127C114.871 20.4127 116.824 21.5058 117.843 22.7198H118.001V21.0406H122.303V21.036ZM118.322 30.7666C118.322 27.1339 115.898 24.478 112.815 24.478C109.689 24.478 107.07 27.1339 107.07 30.7666C107.07 34.3621 109.689 36.9808 112.815 36.9808C115.898 36.9808 118.322 34.3621 118.322 30.7666Z" fill="#AEAEB2"/>
<path d="M129.396 10.1798V40.4134H124.978V10.1798H129.396Z" fill="#AEAEB2"/>
<path d="M146.616 34.1249L150.132 36.4691C148.997 38.1482 146.262 41.0414 141.536 41.0414C135.676 41.0414 131.299 36.511 131.299 30.7247C131.299 24.5896 135.713 20.4081 141.029 20.4081C146.383 20.4081 149.002 24.6687 149.858 26.9711L150.327 28.1432L136.536 33.8551C137.592 35.9249 139.234 36.9808 141.536 36.9808C143.843 36.9808 145.444 35.8458 146.616 34.1249ZM135.792 30.4131L145.011 26.585C144.504 25.2966 142.978 24.3989 141.183 24.3989C138.88 24.3989 135.676 26.4316 135.792 30.4131Z" fill="#AEAEB2"/>
<path d="M41.1563 28.0456V23.6687H55.9056C56.0498 24.4315 56.1242 25.3339 56.1242 26.3106C56.1242 29.5945 55.2265 33.6551 52.3334 36.5482C49.5194 39.4786 45.9239 41.0414 41.1609 41.0414C32.3327 41.0414 24.9092 33.8504 24.9092 25.0222C24.9092 16.194 32.3327 9.00305 41.1609 9.00305C46.0448 9.00305 49.524 10.9194 52.1381 13.4172L49.0496 16.5056C47.1751 14.7474 44.6355 13.38 41.1563 13.38C34.7095 13.38 29.6675 18.5755 29.6675 25.0222C29.6675 31.469 34.7095 36.6645 41.1563 36.6645C45.3378 36.6645 47.7193 34.9854 49.2449 33.4597C50.4822 32.2225 51.2962 30.455 51.6171 28.0409L41.1563 28.0456Z" fill="#AEAEB2"/>
</g>
<defs>
<clipPath id="clip0_16_421">
<rect width="126.516" height="42.7922" fill="white" transform="translate(24.7417 8.78442)"/>
</clipPath>
</defs>
</svg>
