<svg width="176" height="61" viewBox="0 0 176 61" fill="none" xmlns="http://www.w3.org/2000/svg">
<g clip-path="url(#clip0_16_482)">
<path d="M71.1904 6.18518H79.5738V7.04064H75.8954V16.75H74.9116V7.04064H71.2332V6.18518H71.1904Z" fill="#AEAEB2"/>
<path d="M80.5576 6.18518H81.5414V10.7619H87.829V6.18518H88.8128V16.75H87.829V11.6173H81.5414V16.75H80.5576V6.18518Z" fill="#AEAEB2"/>
<path d="M90.9941 6.18518H98.2655V7.04064H91.9779V10.8474H97.8806V11.7029H91.9779V15.8518H98.3511V16.7073H90.9941V6.18518Z" fill="#AEAEB2"/>
<path d="M71.1904 42.9275H77.9058V43.783H72.2169V47.5897H77.2641V48.4452H72.2169V53.4924H71.2332V42.9275H71.1904Z" fill="#AEAEB2"/>
<path d="M83.5515 42.7134C86.845 42.7134 88.5131 45.3225 88.5131 48.231C88.5131 51.1396 86.845 53.7488 83.5515 53.7488C80.2152 53.7488 78.5898 51.1396 78.5898 48.231C78.5898 45.3225 80.2579 42.7134 83.5515 42.7134ZM83.5515 52.8505C86.3317 52.8505 87.5293 50.498 87.5293 48.1883C87.5293 45.8785 86.3317 43.5261 83.5515 43.5261C80.7712 43.5261 79.5736 45.8785 79.5736 48.1883C79.5736 50.5408 80.7712 52.8505 83.5515 52.8505Z" fill="#AEAEB2"/>
<path d="M90.0107 42.9275H90.9945V49.4717C90.9945 51.9098 92.1494 52.8508 94.0741 52.8508C96.0417 52.8508 97.1966 51.9098 97.1966 49.4717V42.9275H98.2231V49.6856C98.2231 51.867 97.0682 53.7062 94.117 53.7062C91.2083 53.7062 90.0107 51.867 90.0107 49.6856V42.9275Z" fill="#AEAEB2"/>
<path d="M100.233 42.9275H101.346L107.505 51.867H107.548V42.9275H108.574V53.4924H107.462L101.303 44.5528H101.26V53.4924H100.233V42.9275Z" fill="#AEAEB2"/>
<path d="M110.626 42.9275H114.262C117.469 43.013 119.095 44.7239 119.095 48.1886C119.095 51.6959 117.427 53.4068 114.262 53.4497H110.626V42.9275ZM111.653 52.637H113.791C116.828 52.637 118.154 51.3966 118.154 48.2313C118.154 45.0661 116.828 43.8257 113.791 43.8257H111.653V52.637Z" fill="#AEAEB2"/>
<path d="M123.844 42.9275H124.956L129.105 53.4924H128.036L126.753 50.1989H121.962L120.679 53.4924H119.609L123.844 42.9275ZM122.262 49.3434H126.411L124.358 43.9541L122.262 49.3434Z" fill="#AEAEB2"/>
<path d="M127.949 42.9275H136.333V43.783H132.655V53.4924H131.628V43.783H127.949V42.9275Z" fill="#AEAEB2"/>
<path d="M137.359 42.9275H138.386V53.4924H137.359V42.9275Z" fill="#AEAEB2"/>
<path d="M144.974 42.7134C148.267 42.7134 149.936 45.3225 149.936 48.231C149.936 51.1396 148.267 53.7488 144.974 53.7488C141.637 53.7488 140.012 51.1396 140.012 48.231C140.012 45.3225 141.68 42.7134 144.974 42.7134ZM144.974 52.8505C147.754 52.8505 148.951 50.498 148.951 48.1883C148.951 45.8785 147.754 43.5261 144.974 43.5261C142.193 43.5261 140.996 45.8785 140.996 48.1883C141.038 50.5408 142.193 52.8505 144.974 52.8505Z" fill="#AEAEB2"/>
<path d="M151.518 42.9275H152.63L158.789 51.867H158.832V42.9275H159.858V53.4924H158.746L152.587 44.5528H152.544V53.4924H151.518V42.9275Z" fill="#AEAEB2"/>
<path d="M71.1904 19.8722H77.0075V33.9016H85.3482V38.735H71.1904V19.8722Z" fill="#AEAEB2"/>
<path d="M89.1982 19.8722H95.0154V38.735H89.1982V19.8722Z" fill="#AEAEB2"/>
<path d="M99.335 19.8722H105.28L110.798 29.9665H110.841V19.8722H116.358V38.7349H110.713L104.895 28.4695H104.853V38.7778H99.335V19.8722Z" fill="#AEAEB2"/>
<path d="M137.873 31.4636C137.873 36.7247 135.093 39.2054 129.276 39.2054C123.459 39.2054 120.636 36.7247 120.636 31.4636V19.8722H126.453V30.1804C126.453 32.1052 126.411 34.5005 129.276 34.5005C132.013 34.5005 132.013 32.0624 132.013 30.1804V19.8722H137.831V31.4636H137.873Z" fill="#AEAEB2"/>
<path d="M147.113 28.7262L140.91 19.8722H147.753L150.62 25.0049L153.442 19.8722H159.902L153.828 28.7689L160.5 38.7778H153.486L150.277 33.1318L146.941 38.7778H140.269L147.113 28.7262Z" fill="#AEAEB2"/>
<path d="M24.9956 43.9961V25.005H15.5V53.4917H43.9867V43.9961H24.9956Z" fill="#AEAEB2"/>
<path d="M62.9778 6.01392H15.5V20.2573H24.9956V15.5522H53.4823V43.9962H48.7345V53.4917H62.9778V6.01392Z" fill="#AEAEB2"/>
</g>
<defs>
<clipPath id="clip0_16_482">
<rect width="145" height="48.3333" fill="white" transform="translate(15.5 6.01392)"/>
</clipPath>
</defs>
</svg>
