<svg width="177" height="61" viewBox="0 0 177 61" fill="none" xmlns="http://www.w3.org/2000/svg">
<g clip-path="url(#clip0_16_429)">
<path d="M75.2901 20.1337V40.2274H71.8016V24.4594H71.7551L65.5223 40.2274H63.1966L56.8243 24.4594H56.7778V40.2274H53.5684V20.1337H58.5918L64.3594 35.0179H64.4525L70.5457 20.1337H75.2901ZM78.1739 21.6686C78.1739 21.1105 78.3599 20.6453 78.7786 20.2732C79.1972 19.9011 79.6623 19.7151 80.2205 19.7151C80.8251 19.7151 81.3368 19.9011 81.7089 20.2732C82.081 20.6453 82.3136 21.1105 82.3136 21.6686C82.3136 22.2268 82.1275 22.6919 81.7089 23.064C81.2903 23.4361 80.8251 23.6222 80.2205 23.6222C79.6158 23.6222 79.1507 23.4361 78.7786 23.064C78.4065 22.6454 78.1739 22.1803 78.1739 21.6686ZM81.9415 25.8083V40.2274H78.546V25.8083H81.9415ZM92.2209 37.7622C92.7325 37.7622 93.2907 37.6692 93.8954 37.3901C94.5 37.1576 95.0582 36.832 95.5699 36.4599V39.6228C95.0117 39.9483 94.407 40.1809 93.7093 40.3205C93.0116 40.46 92.2674 40.553 91.4302 40.553C89.2906 40.553 87.5696 39.9018 86.2672 38.5529C84.9183 37.2041 84.2671 35.4831 84.2671 33.4365C84.2671 31.1108 84.9648 29.2038 86.3137 27.7154C87.6626 26.2269 89.5696 25.4827 92.0814 25.4827C92.7325 25.4827 93.3837 25.5757 93.9884 25.7153C94.6396 25.8548 95.1512 26.0874 95.5233 26.2734V29.5294C95.0117 29.1573 94.4535 28.8317 93.9419 28.6456C93.3837 28.4596 92.8256 28.32 92.2674 28.32C90.9185 28.32 89.8487 28.7386 89.0115 29.6224C88.1742 30.5062 87.8021 31.669 87.8021 33.1574C87.8021 34.5993 88.2208 35.7622 89.0115 36.5529C89.8022 37.3436 90.872 37.7622 92.2209 37.7622ZM105.198 25.5757C105.477 25.5757 105.71 25.5757 105.942 25.6223C106.175 25.6688 106.361 25.7153 106.5 25.7618V29.2038C106.314 29.0642 106.082 28.9247 105.71 28.8317C105.338 28.7386 104.966 28.6456 104.454 28.6456C103.617 28.6456 102.919 29.0177 102.361 29.7154C101.803 30.4131 101.477 31.4829 101.477 32.9714V40.2274H98.0816V25.8083H101.477V28.0875H101.524C101.849 27.2967 102.314 26.6921 102.919 26.2269C103.57 25.8083 104.314 25.5757 105.198 25.5757ZM106.687 33.2504C106.687 30.8783 107.384 28.9712 108.687 27.5758C110.035 26.1804 111.896 25.4827 114.268 25.4827C116.501 25.4827 118.268 26.1339 119.524 27.4828C120.78 28.8317 121.431 30.6457 121.431 32.9248C121.431 35.2505 120.734 37.111 119.431 38.5064C118.082 39.9018 116.268 40.5995 113.943 40.5995C111.71 40.5995 109.942 39.9483 108.64 38.646C107.338 37.2971 106.687 35.4831 106.687 33.2504ZM110.222 33.1109C110.222 34.5993 110.547 35.7622 111.245 36.5529C111.943 37.3436 112.919 37.7622 114.175 37.7622C115.385 37.7622 116.361 37.3901 117.012 36.5529C117.664 35.7622 117.989 34.5993 117.989 33.0179C117.989 31.4829 117.664 30.3201 117.012 29.4829C116.361 28.6921 115.385 28.2735 114.222 28.2735C112.966 28.2735 112.036 28.6921 111.338 29.5294C110.547 30.4131 110.222 31.576 110.222 33.1109ZM126.501 29.6224C126.501 30.0875 126.641 30.5062 126.966 30.7852C127.292 31.0643 127.943 31.3899 129.013 31.8085C130.362 32.3667 131.339 32.9714 131.85 33.6225C132.408 34.3202 132.687 35.111 132.687 36.0877C132.687 37.4366 132.176 38.5064 131.106 39.3437C130.083 40.1809 128.641 40.553 126.873 40.553C126.269 40.553 125.617 40.46 124.873 40.3205C124.129 40.1809 123.524 39.9949 123.013 39.7623V36.4133C123.617 36.832 124.315 37.2041 125.013 37.4366C125.71 37.6692 126.362 37.8087 126.966 37.8087C127.711 37.8087 128.315 37.7157 128.641 37.4831C129.013 37.2506 129.199 36.925 129.199 36.4133C129.199 35.9482 129.013 35.5761 128.641 35.204C128.269 34.8784 127.524 34.5063 126.501 34.0877C125.245 33.576 124.362 32.9714 123.85 32.3202C123.338 31.669 123.059 30.8317 123.059 29.8085C123.059 28.5061 123.571 27.4363 124.594 26.599C125.617 25.7618 126.966 25.3432 128.594 25.3432C129.106 25.3432 129.664 25.3897 130.269 25.5292C130.873 25.6688 131.432 25.8083 131.85 25.9478V29.2503C131.385 28.9712 130.873 28.6921 130.269 28.4596C129.664 28.227 129.059 28.134 128.501 28.134C127.85 28.134 127.338 28.2735 127.013 28.5061C126.687 28.8317 126.501 29.1573 126.501 29.6224ZM134.129 33.2504C134.129 30.8783 134.827 28.9712 136.129 27.5758C137.478 26.1804 139.339 25.4827 141.711 25.4827C143.944 25.4827 145.711 26.1339 146.967 27.4828C148.223 28.8317 148.874 30.6457 148.874 32.9248C148.874 35.2505 148.176 37.111 146.874 38.5064C145.525 39.9018 143.711 40.5995 141.385 40.5995C139.153 40.5995 137.385 39.9483 136.083 38.646C134.827 37.2971 134.129 35.4831 134.129 33.2504ZM137.664 33.1109C137.664 34.5993 137.99 35.7622 138.688 36.5529C139.385 37.3436 140.362 37.7622 141.618 37.7622C142.827 37.7622 143.804 37.3901 144.455 36.5529C145.107 35.7622 145.432 34.5993 145.432 33.0179C145.432 31.4829 145.107 30.3201 144.455 29.4829C143.804 28.6921 142.827 28.2735 141.665 28.2735C140.409 28.2735 139.478 28.6921 138.781 29.5294C138.036 30.4131 137.664 31.576 137.664 33.1109ZM160.177 28.5991H155.107V40.2274H151.665V28.5991H149.246V25.8083H151.665V23.8082C151.665 22.3198 152.177 21.064 153.153 20.0872C154.13 19.1104 155.386 18.6453 156.921 18.6453C157.34 18.6453 157.712 18.6918 158.037 18.6918C158.363 18.6918 158.642 18.7848 158.874 18.8778V21.8082C158.781 21.7617 158.549 21.6686 158.27 21.5756C157.991 21.4826 157.665 21.4361 157.293 21.4361C156.595 21.4361 156.037 21.6686 155.665 22.0872C155.293 22.5059 155.107 23.2036 155.107 24.0408V25.7618H160.177V22.5059L163.572 21.4826V25.7618H167.014V28.5526H163.572V35.297C163.572 36.1808 163.758 36.7854 164.037 37.1576C164.363 37.5297 164.875 37.7157 165.572 37.7157C165.758 37.7157 165.991 37.6692 166.27 37.5762C166.549 37.4831 166.782 37.3901 166.968 37.2506V40.0414C166.735 40.1809 166.41 40.2739 165.898 40.367C165.386 40.46 164.921 40.5065 164.41 40.5065C162.968 40.5065 161.898 40.1344 161.2 39.3902C160.502 38.646 160.13 37.4831 160.13 35.9482L160.177 28.5991Z" fill="#AEAEB2"/>
<path d="M25.8929 13.4358H9.98535V29.3433H25.8929V13.4358Z" fill="#AEAEB2"/>
<path d="M43.4749 13.4358H27.5674V29.3433H43.4749V13.4358Z" fill="#AEAEB2"/>
<path d="M25.8929 31.0178H9.98535V46.9254H25.8929V31.0178Z" fill="#AEAEB2"/>
<path d="M43.4749 31.0178H27.5674V46.9254H43.4749V31.0178Z" fill="#AEAEB2"/>
</g>
<defs>
<clipPath id="clip0_16_429">
<rect width="157.029" height="33.4896" fill="white" transform="translate(9.98535 13.4358)"/>
</clipPath>
</defs>
</svg>
