<svg width="176" height="61" viewBox="0 0 176 61" fill="none" xmlns="http://www.w3.org/2000/svg">
<g clip-path="url(#clip0_16_444)">
<path d="M106.085 20.5614V40.8848H111.82V20.5614H106.085ZM60.96 20.527V40.8675H66.7469V25.0739L71.2594 25.0911C72.7406 25.0911 73.774 25.4528 74.4801 26.2106C75.393 27.1751 75.7547 28.7424 75.7547 31.5842V40.8675H81.3694V29.638C81.3694 21.612 76.2541 20.527 71.2594 20.527H60.96ZM115.333 20.5614V40.8848H124.634C129.594 40.8848 131.213 40.058 132.953 38.2152C134.193 36.9234 134.985 34.0644 134.985 30.947C134.985 28.0879 134.313 25.5389 133.125 23.9544C131.024 21.1126 127.958 20.5614 123.377 20.5614H115.333ZM121.017 24.9706H123.48C127.062 24.9706 129.37 26.5723 129.37 30.7403C129.37 34.9083 127.062 36.5273 123.48 36.5273H121.017V24.9706ZM97.8175 20.5614L93.0295 36.6651L88.4481 20.5614H82.2478L88.7926 40.8848H97.0597L103.673 20.5614H97.8175ZM137.672 40.8848H143.407V20.5614H137.672V40.8848ZM153.758 20.5614L145.75 40.8675H151.399L152.673 37.2679H162.146L163.352 40.8503H169.5L161.423 20.5614H153.758ZM157.479 24.2644L160.958 33.7716H153.896L157.479 24.2644Z" fill="#AEAEB2"/>
<path d="M23.9471 23.9372V21.147C24.2226 21.1298 24.4982 21.1126 24.7738 21.1126C32.4209 20.8715 37.4328 27.6918 37.4328 27.6918C37.4328 27.6918 32.0247 35.2011 26.2205 35.2011C25.4455 35.2011 24.6877 35.0806 23.9643 34.8394V26.3656C26.9439 26.7273 27.5467 28.0363 29.3207 31.0159L33.2992 27.6746C33.2992 27.6746 30.3885 23.8683 25.4971 23.8683C24.9805 23.8511 24.4638 23.8855 23.9471 23.9372ZM23.9471 14.7056V18.8736L24.7738 18.8219C35.4005 18.4602 42.3414 27.5368 42.3414 27.5368C42.3414 27.5368 34.3843 37.2162 26.1 37.2162C25.3766 37.2162 24.6704 37.1473 23.9643 37.0268V39.6103C24.5499 39.6792 25.1527 39.7308 25.7383 39.7308C33.4542 39.7308 39.0346 35.7867 44.4426 31.1365C45.3382 31.8598 49.0068 33.5994 49.7646 34.3572C44.6321 38.663 32.662 42.1248 25.8761 42.1248C25.2216 42.1248 24.6015 42.0904 23.9815 42.0215V45.6556H53.2953V14.7056L23.9471 14.7056ZM23.9471 34.8394V37.044C16.8167 35.7695 14.836 28.3463 14.836 28.3463C14.836 28.3463 18.2634 24.5572 23.9471 23.9372V26.3484H23.9298C20.9502 25.9867 18.6079 28.7769 18.6079 28.7769C18.6079 28.7769 19.9341 33.4788 23.9471 34.8394ZM11.288 28.0363C11.288 28.0363 15.5077 21.8015 23.9643 21.147V18.8736C14.5949 19.6314 6.5 27.554 6.5 27.554C6.5 27.554 11.0814 40.8159 23.9471 42.0215V39.6103C14.5088 38.4391 11.288 28.0363 11.288 28.0363Z" fill="#AEAEB2"/>
</g>
<defs>
<clipPath id="clip0_16_444">
<rect width="163" height="30.97" fill="white" transform="translate(6.5 14.6956)"/>
</clipPath>
</defs>
</svg>
