<svg width="604" height="430" viewBox="0 0 604 430" fill="none" xmlns="http://www.w3.org/2000/svg">
<g clip-path="url(#clip0_40_274)">
<g clip-path="url(#clip1_40_274)">
<rect width="604" height="512" fill="#F6F7F9"/>
<g clip-path="url(#paint0_diamond_40_274_clip_path)" data-figma-skip-parse="true"><g transform="matrix(0.255787 -0.408116 0.480321 0.397954 6.99997 429)"><rect x="0" y="0" width="1493.55" height="892.355" fill="url(#paint0_diamond_40_274)" opacity="1" shape-rendering="crispEdges"/><rect x="0" y="0" width="1493.55" height="892.355" transform="scale(1 -1)" fill="url(#paint0_diamond_40_274)" opacity="1" shape-rendering="crispEdges"/><rect x="0" y="0" width="1493.55" height="892.355" transform="scale(-1 1)" fill="url(#paint0_diamond_40_274)" opacity="1" shape-rendering="crispEdges"/><rect x="0" y="0" width="1493.55" height="892.355" transform="scale(-1)" fill="url(#paint0_diamond_40_274)" opacity="1" shape-rendering="crispEdges"/></g></g><rect width="604" height="512" data-figma-gradient-fill="{&#34;type&#34;:&#34;GRADIENT_DIAMOND&#34;,&#34;stops&#34;:[{&#34;color&#34;:{&#34;r&#34;:0.74509805440902710,&#34;g&#34;:0.81568628549575806,&#34;b&#34;:0.89803922176361084,&#34;a&#34;:1.0},&#34;position&#34;:0.0},{&#34;color&#34;:{&#34;r&#34;:0.90980392694473267,&#34;g&#34;:0.93333333730697632,&#34;b&#34;:0.96470588445663452,&#34;a&#34;:1.0},&#34;position&#34;:1.0}],&#34;stopsVar&#34;:[{&#34;color&#34;:{&#34;r&#34;:0.74509805440902710,&#34;g&#34;:0.81568628549575806,&#34;b&#34;:0.89803922176361084,&#34;a&#34;:1.0},&#34;position&#34;:0.0},{&#34;color&#34;:{&#34;r&#34;:0.90980392694473267,&#34;g&#34;:0.93333333730697632,&#34;b&#34;:0.96470588445663452,&#34;a&#34;:1.0},&#34;position&#34;:1.0}],&#34;transform&#34;:{&#34;m00&#34;:511.573730468750,&#34;m01&#34;:960.64294433593750,&#34;m02&#34;:-729.10839843750,&#34;m10&#34;:-816.23150634765625,&#34;m11&#34;:795.90759277343750,&#34;m12&#34;:439.16195678710938},&#34;opacity&#34;:1.0,&#34;blendMode&#34;:&#34;NORMAL&#34;,&#34;visible&#34;:true}"/>
<g clip-path="url(#clip2_40_274)">
<rect width="584.563" height="442.084" transform="translate(140.532 65.5474)" fill="#F7F9FC" fill-opacity="0.8"/>
<path d="M828.958 261.289V260.624H328.284V261.289V261.955H828.958V261.289Z" fill="#E3E7EF"/>
<path d="M363.704 230.13L373.092 220.743L371.227 218.878L363.704 226.402L359.909 222.607L358.045 224.471L363.704 230.13ZM365.568 237.321C363.726 237.321 361.995 236.971 360.375 236.272C358.755 235.573 357.346 234.624 356.147 233.426C354.949 232.227 354 230.818 353.301 229.198C352.602 227.578 352.252 225.847 352.252 224.005C352.252 222.163 352.602 220.432 353.301 218.812C354 217.192 354.949 215.782 356.147 214.584C357.346 213.386 358.755 212.437 360.375 211.738C361.995 211.039 363.726 210.689 365.568 210.689C367.41 210.689 369.141 211.039 370.761 211.738C372.381 212.437 373.791 213.386 374.989 214.584C376.188 215.782 377.136 217.192 377.835 218.812C378.534 220.432 378.884 222.163 378.884 224.005C378.884 225.847 378.534 227.578 377.835 229.198C377.136 230.818 376.188 232.227 374.989 233.426C373.791 234.624 372.381 235.573 370.761 236.272C369.141 236.971 367.41 237.321 365.568 237.321Z" fill="#77DE6D"/>
<path d="M411.909 220.337C411.829 219.666 411.507 219.145 410.942 218.774C410.377 218.404 409.684 218.218 408.864 218.218C408.263 218.218 407.738 218.315 407.288 218.51C406.842 218.704 406.494 218.971 406.242 219.311C405.995 219.65 405.871 220.037 405.871 220.469C405.871 220.831 405.957 221.142 406.129 221.403C406.306 221.659 406.531 221.873 406.805 222.045C407.078 222.212 407.365 222.351 407.665 222.462C407.965 222.568 408.241 222.654 408.493 222.72L409.87 223.091C410.223 223.183 410.616 223.311 411.048 223.475C411.485 223.638 411.902 223.861 412.299 224.143C412.701 224.421 413.032 224.779 413.292 225.216C413.553 225.653 413.683 226.189 413.683 226.824C413.683 227.557 413.491 228.219 413.107 228.81C412.727 229.402 412.171 229.872 411.439 230.22C410.711 230.569 409.826 230.743 408.784 230.743C407.813 230.743 406.972 230.587 406.262 230.273C405.556 229.96 405 229.523 404.594 228.963C404.192 228.402 403.965 227.751 403.912 227.01H405.606C405.651 227.522 405.823 227.945 406.123 228.281C406.427 228.612 406.811 228.859 407.275 229.022C407.743 229.181 408.246 229.261 408.784 229.261C409.411 229.261 409.974 229.159 410.472 228.956C410.971 228.749 411.366 228.462 411.657 228.095C411.949 227.725 412.094 227.292 412.094 226.798C412.094 226.348 411.968 225.981 411.717 225.699C411.465 225.417 411.134 225.187 410.724 225.01C410.313 224.834 409.87 224.679 409.393 224.547L407.725 224.07C406.666 223.766 405.827 223.331 405.209 222.766C404.591 222.201 404.282 221.462 404.282 220.549C404.282 219.789 404.488 219.127 404.898 218.563C405.313 217.993 405.869 217.552 406.566 217.239C407.268 216.921 408.051 216.762 408.917 216.762C409.79 216.762 410.567 216.919 411.247 217.232C411.926 217.541 412.465 217.965 412.862 218.503C413.264 219.041 413.476 219.653 413.498 220.337H411.909ZM420.434 230.717C419.454 230.717 418.609 230.501 417.898 230.068C417.192 229.631 416.647 229.022 416.263 228.241C415.884 227.455 415.694 226.542 415.694 225.5C415.694 224.459 415.884 223.541 416.263 222.746C416.647 221.948 417.181 221.325 417.865 220.88C418.554 220.429 419.357 220.204 420.275 220.204C420.805 220.204 421.327 220.293 421.844 220.469C422.36 220.646 422.83 220.933 423.254 221.33C423.678 221.723 424.015 222.243 424.267 222.892C424.518 223.541 424.644 224.34 424.644 225.289V225.951H416.806V224.6H423.055C423.055 224.026 422.941 223.514 422.711 223.064C422.486 222.614 422.164 222.259 421.745 221.998C421.33 221.738 420.84 221.608 420.275 221.608C419.653 221.608 419.114 221.762 418.66 222.071C418.209 222.376 417.863 222.773 417.62 223.263C417.378 223.753 417.256 224.278 417.256 224.838V225.739C417.256 226.507 417.389 227.158 417.653 227.692C417.923 228.221 418.295 228.625 418.772 228.903C419.249 229.177 419.803 229.314 420.434 229.314C420.844 229.314 421.215 229.256 421.546 229.141C421.881 229.022 422.17 228.846 422.413 228.612C422.656 228.373 422.843 228.078 422.976 227.725L424.485 228.148C424.326 228.66 424.059 229.11 423.684 229.499C423.309 229.883 422.846 230.183 422.294 230.399C421.742 230.611 421.122 230.717 420.434 230.717ZM431.443 220.337V221.661H426.173V220.337H431.443ZM427.709 217.901H429.272V227.592C429.272 228.034 429.336 228.365 429.464 228.585C429.596 228.802 429.764 228.947 429.967 229.022C430.174 229.093 430.393 229.128 430.622 229.128C430.794 229.128 430.935 229.119 431.046 229.102C431.156 229.08 431.244 229.062 431.311 229.049L431.628 230.452C431.522 230.492 431.375 230.532 431.185 230.571C430.995 230.615 430.754 230.638 430.463 230.638C430.022 230.638 429.589 230.543 429.166 230.353C428.746 230.163 428.398 229.874 428.12 229.486C427.846 229.097 427.709 228.607 427.709 228.016V217.901ZM445.444 226.348V220.337H447.007V230.505H445.444V228.784H445.338C445.1 229.3 444.729 229.739 444.226 230.101C443.723 230.459 443.088 230.638 442.32 230.638C441.684 230.638 441.119 230.499 440.625 230.22C440.131 229.938 439.742 229.514 439.46 228.949C439.177 228.38 439.036 227.663 439.036 226.798V220.337H440.598V226.692C440.598 227.433 440.806 228.025 441.221 228.466C441.64 228.907 442.174 229.128 442.823 229.128C443.211 229.128 443.606 229.029 444.008 228.83C444.414 228.632 444.754 228.327 445.027 227.917C445.305 227.506 445.444 226.983 445.444 226.348ZM449.868 234.318V220.337H451.378V221.952H451.563C451.678 221.775 451.837 221.55 452.04 221.277C452.247 220.999 452.543 220.752 452.927 220.535C453.315 220.315 453.84 220.204 454.502 220.204C455.358 220.204 456.113 220.418 456.766 220.846C457.42 221.275 457.929 221.881 458.296 222.667C458.662 223.453 458.845 224.379 458.845 225.447C458.845 226.524 458.662 227.458 458.296 228.248C457.929 229.033 457.422 229.642 456.773 230.075C456.124 230.503 455.376 230.717 454.529 230.717C453.876 230.717 453.353 230.609 452.96 230.393C452.567 230.172 452.265 229.923 452.053 229.645C451.841 229.362 451.678 229.128 451.563 228.943H451.431V234.318H449.868ZM451.404 225.421C451.404 226.189 451.517 226.866 451.742 227.453C451.967 228.036 452.296 228.493 452.728 228.824C453.161 229.15 453.69 229.314 454.317 229.314C454.97 229.314 455.515 229.141 455.952 228.797C456.393 228.448 456.724 227.981 456.945 227.394C457.17 226.802 457.283 226.145 457.283 225.421C457.283 224.706 457.172 224.062 456.952 223.488C456.735 222.91 456.407 222.453 455.965 222.118C455.528 221.778 454.979 221.608 454.317 221.608C453.681 221.608 453.147 221.769 452.715 222.091C452.282 222.409 451.956 222.855 451.735 223.428C451.514 223.998 451.404 224.662 451.404 225.421ZM466.471 220.337H468.034V231.247C468.034 231.873 467.926 232.416 467.709 232.875C467.497 233.334 467.175 233.689 466.743 233.941C466.315 234.193 465.774 234.318 465.121 234.318C465.068 234.318 465.015 234.318 464.962 234.318C464.909 234.318 464.856 234.318 464.803 234.318V232.862C464.856 232.862 464.905 232.862 464.949 232.862C464.993 232.862 465.041 232.862 465.094 232.862C465.571 232.862 465.92 232.721 466.14 232.438C466.361 232.16 466.471 231.763 466.471 231.247V220.337ZM467.239 218.642C466.935 218.642 466.672 218.538 466.452 218.331C466.235 218.123 466.127 217.874 466.127 217.583C466.127 217.291 466.235 217.042 466.452 216.835C466.672 216.627 466.935 216.524 467.239 216.524C467.544 216.524 467.804 216.627 468.02 216.835C468.241 217.042 468.351 217.291 468.351 217.583C468.351 217.874 468.241 218.123 468.02 218.331C467.804 218.538 467.544 218.642 467.239 218.642ZM475.026 230.717C474.108 230.717 473.303 230.499 472.61 230.062C471.921 229.625 471.383 229.013 470.995 228.228C470.611 227.442 470.419 226.524 470.419 225.474C470.419 224.415 470.611 223.49 470.995 222.7C471.383 221.91 471.921 221.297 472.61 220.86C473.303 220.423 474.108 220.204 475.026 220.204C475.944 220.204 476.747 220.423 477.436 220.86C478.129 221.297 478.667 221.91 479.051 222.7C479.44 223.49 479.634 224.415 479.634 225.474C479.634 226.524 479.44 227.442 479.051 228.228C478.667 229.013 478.129 229.625 477.436 230.062C476.747 230.499 475.944 230.717 475.026 230.717ZM475.026 229.314C475.723 229.314 476.297 229.135 476.747 228.777C477.198 228.42 477.531 227.95 477.747 227.367C477.963 226.785 478.071 226.154 478.071 225.474C478.071 224.794 477.963 224.161 477.747 223.574C477.531 222.987 477.198 222.513 476.747 222.151C476.297 221.789 475.723 221.608 475.026 221.608C474.329 221.608 473.755 221.789 473.305 222.151C472.855 222.513 472.522 222.987 472.305 223.574C472.089 224.161 471.981 224.794 471.981 225.474C471.981 226.154 472.089 226.785 472.305 227.367C472.522 227.95 472.855 228.42 473.305 228.777C473.755 229.135 474.329 229.314 475.026 229.314ZM482.23 230.505V216.947H483.793V221.952H483.925C484.04 221.775 484.199 221.55 484.402 221.277C484.609 220.999 484.905 220.752 485.289 220.535C485.677 220.315 486.202 220.204 486.864 220.204C487.721 220.204 488.475 220.418 489.129 220.846C489.782 221.275 490.291 221.881 490.658 222.667C491.024 223.453 491.207 224.379 491.207 225.447C491.207 226.524 491.024 227.458 490.658 228.248C490.291 229.033 489.784 229.642 489.135 230.075C488.486 230.503 487.738 230.717 486.891 230.717C486.238 230.717 485.715 230.609 485.322 230.393C484.929 230.172 484.627 229.923 484.415 229.645C484.203 229.362 484.04 229.128 483.925 228.943H483.74V230.505H482.23ZM483.766 225.421C483.766 226.189 483.879 226.866 484.104 227.453C484.329 228.036 484.658 228.493 485.09 228.824C485.523 229.15 486.052 229.314 486.679 229.314C487.332 229.314 487.877 229.141 488.314 228.797C488.756 228.448 489.087 227.981 489.307 227.394C489.532 226.802 489.645 226.145 489.645 225.421C489.645 224.706 489.535 224.062 489.314 223.488C489.098 222.91 488.769 222.453 488.328 222.118C487.891 221.778 487.341 221.608 486.679 221.608C486.044 221.608 485.51 221.769 485.077 222.091C484.645 222.409 484.318 222.855 484.097 223.428C483.877 223.998 483.766 224.662 483.766 225.421Z" fill="#666666"/>
<mask id="path-6-inside-1_40_274" fill="white">
<path d="M328.284 261.289H828.958V335.858H328.284V261.289Z"/>
</mask>
<path d="M828.958 335.858V334.526H328.284V335.858V337.189H828.958V335.858Z" fill="#E3E7EF" mask="url(#path-6-inside-1_40_274)"/>
<path d="M363.704 304.699L373.092 295.311L371.227 293.447L363.704 300.97L359.909 297.175L358.045 299.039L363.704 304.699ZM365.568 311.889C363.726 311.889 361.995 311.54 360.375 310.841C358.755 310.141 357.346 309.193 356.147 307.994C354.949 306.796 354 305.387 353.301 303.767C352.602 302.146 352.252 300.415 352.252 298.573C352.252 296.731 352.602 295 353.301 293.38C354 291.76 354.949 290.351 356.147 289.152C357.346 287.954 358.755 287.005 360.375 286.306C361.995 285.607 363.726 285.258 365.568 285.258C367.41 285.258 369.141 285.607 370.761 286.306C372.381 287.005 373.791 287.954 374.989 289.152C376.188 290.351 377.136 291.76 377.835 293.38C378.534 295 378.884 296.731 378.884 298.573C378.884 300.415 378.534 302.146 377.835 303.767C377.136 305.387 376.188 306.796 374.989 307.994C373.791 309.193 372.381 310.141 370.761 310.841C369.141 311.54 367.41 311.889 365.568 311.889Z" fill="#77DE6D"/>
<path d="M408.678 305.073H404.494V291.516H408.864C410.179 291.516 411.304 291.787 412.24 292.33C413.175 292.868 413.893 293.643 414.391 294.654C414.89 295.66 415.139 296.865 415.139 298.268C415.139 299.68 414.888 300.896 414.385 301.916C413.882 302.931 413.149 303.712 412.187 304.259C411.225 304.802 410.055 305.073 408.678 305.073ZM406.136 303.617H408.572C409.693 303.617 410.622 303.401 411.359 302.968C412.096 302.536 412.646 301.92 413.008 301.121C413.37 300.322 413.551 299.371 413.551 298.268C413.551 297.174 413.372 296.231 413.014 295.441C412.657 294.647 412.123 294.038 411.412 293.614C410.702 293.186 409.817 292.972 408.758 292.972H406.136V303.617ZM421.812 305.285C420.894 305.285 420.089 305.067 419.396 304.63C418.708 304.193 418.169 303.582 417.781 302.796C417.397 302.011 417.205 301.093 417.205 300.042C417.205 298.983 417.397 298.058 417.781 297.268C418.169 296.478 418.708 295.865 419.396 295.428C420.089 294.991 420.894 294.773 421.812 294.773C422.73 294.773 423.534 294.991 424.222 295.428C424.915 295.865 425.453 296.478 425.837 297.268C426.226 298.058 426.42 298.983 426.42 300.042C426.42 301.093 426.226 302.011 425.837 302.796C425.453 303.582 424.915 304.193 424.222 304.63C423.534 305.067 422.73 305.285 421.812 305.285ZM421.812 303.882C422.51 303.882 423.083 303.703 423.534 303.346C423.984 302.988 424.317 302.518 424.533 301.936C424.75 301.353 424.858 300.722 424.858 300.042C424.858 299.363 424.75 298.729 424.533 298.142C424.317 297.555 423.984 297.081 423.534 296.719C423.083 296.357 422.51 296.176 421.812 296.176C421.115 296.176 420.541 296.357 420.091 296.719C419.641 297.081 419.308 297.555 419.092 298.142C418.875 298.729 418.767 299.363 418.767 300.042C418.767 300.722 418.875 301.353 419.092 301.936C419.308 302.518 419.641 302.988 420.091 303.346C420.541 303.703 421.115 303.882 421.812 303.882ZM430.763 305.073L427.665 294.905H429.306L431.504 302.69H431.61L433.781 294.905H435.45L437.595 302.664H437.701L439.898 294.905H441.54L438.442 305.073H436.906L434.682 297.262H434.523L432.299 305.073H430.763ZM445.168 298.957V305.073H443.606V294.905H445.115V296.494H445.247C445.486 295.978 445.848 295.563 446.333 295.249C446.819 294.932 447.445 294.773 448.213 294.773C448.902 294.773 449.504 294.914 450.021 295.196C450.537 295.474 450.938 295.898 451.225 296.467C451.512 297.032 451.656 297.747 451.656 298.612V305.073H450.093V298.718C450.093 297.919 449.886 297.297 449.471 296.851C449.056 296.401 448.487 296.176 447.763 296.176C447.264 296.176 446.819 296.284 446.426 296.501C446.037 296.717 445.731 297.032 445.506 297.447C445.281 297.862 445.168 298.365 445.168 298.957ZM456.073 291.516V305.073H454.511V291.516H456.073ZM463.065 305.285C462.147 305.285 461.342 305.067 460.649 304.63C459.961 304.193 459.422 303.582 459.034 302.796C458.65 302.011 458.458 301.093 458.458 300.042C458.458 298.983 458.65 298.058 459.034 297.268C459.422 296.478 459.961 295.865 460.649 295.428C461.342 294.991 462.147 294.773 463.065 294.773C463.983 294.773 464.787 294.991 465.475 295.428C466.168 295.865 466.706 296.478 467.09 297.268C467.479 298.058 467.673 298.983 467.673 300.042C467.673 301.093 467.479 302.011 467.09 302.796C466.706 303.582 466.168 304.193 465.475 304.63C464.787 305.067 463.983 305.285 463.065 305.285ZM463.065 303.882C463.763 303.882 464.336 303.703 464.787 303.346C465.237 302.988 465.57 302.518 465.786 301.936C466.002 301.353 466.111 300.722 466.111 300.042C466.111 299.363 466.002 298.729 465.786 298.142C465.57 297.555 465.237 297.081 464.787 296.719C464.336 296.357 463.763 296.176 463.065 296.176C462.368 296.176 461.794 296.357 461.344 296.719C460.894 297.081 460.561 297.555 460.345 298.142C460.128 298.729 460.02 299.363 460.02 300.042C460.02 300.722 460.128 301.353 460.345 301.936C460.561 302.518 460.894 302.988 461.344 303.346C461.794 303.703 462.368 303.882 463.065 303.882ZM473.05 305.312C472.406 305.312 471.821 305.19 471.296 304.948C470.771 304.701 470.353 304.345 470.045 303.882C469.736 303.414 469.581 302.849 469.581 302.187C469.581 301.605 469.696 301.132 469.925 300.77C470.155 300.404 470.462 300.117 470.846 299.91C471.23 299.702 471.653 299.548 472.117 299.446C472.584 299.341 473.054 299.257 473.527 299.195C474.145 299.115 474.646 299.056 475.029 299.016C475.418 298.972 475.7 298.899 475.877 298.798C476.058 298.696 476.148 298.52 476.148 298.268V298.215C476.148 297.562 475.97 297.054 475.612 296.692C475.259 296.331 474.723 296.15 474.003 296.15C473.257 296.15 472.673 296.313 472.249 296.64C471.825 296.966 471.527 297.315 471.355 297.685L469.872 297.156C470.137 296.538 470.49 296.057 470.932 295.713C471.377 295.364 471.863 295.121 472.388 294.985C472.918 294.843 473.438 294.773 473.95 294.773C474.277 294.773 474.652 294.812 475.076 294.892C475.504 294.967 475.917 295.124 476.314 295.362C476.715 295.6 477.049 295.96 477.313 296.441C477.578 296.922 477.711 297.566 477.711 298.374V305.073H476.148V303.697H476.069C475.963 303.917 475.786 304.153 475.539 304.405C475.292 304.656 474.963 304.87 474.553 305.047C474.142 305.224 473.641 305.312 473.05 305.312ZM473.288 303.908C473.906 303.908 474.427 303.787 474.851 303.544C475.279 303.302 475.601 302.988 475.817 302.604C476.038 302.22 476.148 301.816 476.148 301.393V299.963C476.082 300.042 475.936 300.115 475.711 300.181C475.491 300.243 475.235 300.298 474.943 300.347C474.657 300.391 474.376 300.431 474.103 300.466C473.833 300.497 473.615 300.523 473.447 300.545C473.041 300.598 472.662 300.684 472.309 300.804C471.96 300.918 471.678 301.093 471.461 301.327C471.249 301.556 471.143 301.869 471.143 302.267C471.143 302.809 471.344 303.22 471.746 303.498C472.152 303.772 472.666 303.908 473.288 303.908ZM484.402 305.285C483.554 305.285 482.806 305.071 482.158 304.643C481.509 304.211 481.001 303.602 480.635 302.816C480.269 302.026 480.086 301.093 480.086 300.016C480.086 298.948 480.269 298.021 480.635 297.235C481.001 296.45 481.511 295.843 482.164 295.415C482.817 294.987 483.572 294.773 484.428 294.773C485.09 294.773 485.613 294.883 485.997 295.104C486.386 295.32 486.681 295.567 486.884 295.845C487.092 296.119 487.253 296.344 487.368 296.52H487.5V291.516H489.062V305.073H487.553V303.511H487.368C487.253 303.697 487.09 303.93 486.878 304.213C486.666 304.491 486.364 304.74 485.971 304.961C485.578 305.177 485.055 305.285 484.402 305.285ZM484.614 303.882C485.24 303.882 485.77 303.719 486.202 303.392C486.635 303.061 486.964 302.604 487.189 302.022C487.414 301.435 487.526 300.757 487.526 299.989C487.526 299.23 487.416 298.566 487.195 297.997C486.975 297.423 486.648 296.977 486.216 296.659C485.783 296.337 485.249 296.176 484.614 296.176C483.952 296.176 483.4 296.346 482.959 296.686C482.522 297.021 482.193 297.478 481.972 298.056C481.756 298.63 481.648 299.274 481.648 299.989C481.648 300.713 481.758 301.371 481.979 301.962C482.204 302.549 482.535 303.017 482.972 303.366C483.413 303.71 483.96 303.882 484.614 303.882ZM497.596 305.073V291.516H502.177C503.236 291.516 504.105 291.697 504.785 292.058C505.465 292.416 505.968 292.908 506.294 293.535C506.621 294.161 506.784 294.874 506.784 295.673C506.784 296.472 506.621 297.18 506.294 297.798C505.968 298.416 505.467 298.901 504.792 299.254C504.116 299.603 503.254 299.777 502.203 299.777H498.496V298.295H502.15C502.874 298.295 503.457 298.189 503.898 297.977C504.344 297.765 504.666 297.465 504.864 297.076C505.067 296.684 505.169 296.216 505.169 295.673C505.169 295.13 505.067 294.656 504.864 294.25C504.661 293.844 504.337 293.53 503.891 293.31C503.446 293.085 502.856 292.972 502.124 292.972H499.237V305.073H497.596ZM503.977 298.983L507.314 305.073H505.407L502.124 298.983H503.977ZM513.462 305.285C512.482 305.285 511.637 305.069 510.927 304.637C510.221 304.2 509.676 303.591 509.292 302.809C508.912 302.024 508.722 301.11 508.722 300.069C508.722 299.027 508.912 298.109 509.292 297.315C509.676 296.516 510.21 295.894 510.894 295.448C511.582 294.998 512.385 294.773 513.303 294.773C513.833 294.773 514.356 294.861 514.872 295.037C515.389 295.214 515.859 295.501 516.282 295.898C516.706 296.291 517.044 296.812 517.295 297.46C517.547 298.109 517.673 298.908 517.673 299.857V300.519H509.834V299.168H516.084C516.084 298.595 515.969 298.083 515.74 297.633C515.514 297.182 515.192 296.827 514.773 296.567C514.358 296.306 513.868 296.176 513.303 296.176C512.681 296.176 512.143 296.331 511.688 296.64C511.238 296.944 510.891 297.341 510.649 297.831C510.406 298.321 510.285 298.846 510.285 299.407V300.307C510.285 301.075 510.417 301.726 510.682 302.26C510.951 302.79 511.324 303.193 511.801 303.471C512.277 303.745 512.831 303.882 513.462 303.882C513.873 303.882 514.243 303.825 514.574 303.71C514.91 303.591 515.199 303.414 515.442 303.18C515.684 302.942 515.872 302.646 516.004 302.293L517.514 302.717C517.355 303.229 517.088 303.679 516.713 304.067C516.338 304.451 515.874 304.751 515.322 304.968C514.771 305.179 514.151 305.285 513.462 305.285ZM521.612 298.957V305.073H520.049V294.905H521.559V296.494H521.691C521.929 295.978 522.291 295.563 522.777 295.249C523.262 294.932 523.889 294.773 524.657 294.773C525.345 294.773 525.948 294.914 526.464 295.196C526.98 295.474 527.382 295.898 527.669 296.467C527.956 297.032 528.099 297.747 528.099 298.612V305.073H526.537V298.718C526.537 297.919 526.329 297.297 525.915 296.851C525.5 296.401 524.93 296.176 524.207 296.176C523.708 296.176 523.262 296.284 522.869 296.501C522.481 296.717 522.174 297.032 521.949 297.447C521.724 297.862 521.612 298.365 521.612 298.957ZM535.085 305.285C534.167 305.285 533.362 305.067 532.669 304.63C531.98 304.193 531.442 303.582 531.053 302.796C530.669 302.011 530.477 301.093 530.477 300.042C530.477 298.983 530.669 298.058 531.053 297.268C531.442 296.478 531.98 295.865 532.669 295.428C533.362 294.991 534.167 294.773 535.085 294.773C536.003 294.773 536.806 294.991 537.495 295.428C538.188 295.865 538.726 296.478 539.11 297.268C539.498 298.058 539.693 298.983 539.693 300.042C539.693 301.093 539.498 302.011 539.11 302.796C538.726 303.582 538.188 304.193 537.495 304.63C536.806 305.067 536.003 305.285 535.085 305.285ZM535.085 303.882C535.782 303.882 536.356 303.703 536.806 303.346C537.256 302.988 537.59 302.518 537.806 301.936C538.022 301.353 538.13 300.722 538.13 300.042C538.13 299.363 538.022 298.729 537.806 298.142C537.59 297.555 537.256 297.081 536.806 296.719C536.356 296.357 535.782 296.176 535.085 296.176C534.388 296.176 533.814 296.357 533.364 296.719C532.914 297.081 532.58 297.555 532.364 298.142C532.148 298.729 532.04 299.363 532.04 300.042C532.04 300.722 532.148 301.353 532.364 301.936C532.58 302.518 532.914 302.988 533.364 303.346C533.814 303.703 534.388 303.882 535.085 303.882ZM545.917 305.285C545.07 305.285 544.322 305.071 543.673 304.643C543.024 304.211 542.517 303.602 542.15 302.816C541.784 302.026 541.601 301.093 541.601 300.016C541.601 298.948 541.784 298.021 542.15 297.235C542.517 296.45 543.026 295.843 543.68 295.415C544.333 294.987 545.087 294.773 545.944 294.773C546.606 294.773 547.129 294.883 547.513 295.104C547.901 295.32 548.197 295.567 548.4 295.845C548.607 296.119 548.768 296.344 548.883 296.52H549.015V291.516H550.578V305.073H549.068V303.511H548.883C548.768 303.697 548.605 303.93 548.393 304.213C548.181 304.491 547.879 304.74 547.486 304.961C547.093 305.177 546.57 305.285 545.917 305.285ZM546.129 303.882C546.756 303.882 547.285 303.719 547.718 303.392C548.15 303.061 548.479 302.604 548.704 302.022C548.929 301.435 549.042 300.757 549.042 299.989C549.042 299.23 548.931 298.566 548.711 297.997C548.49 297.423 548.164 296.977 547.731 296.659C547.299 296.337 546.764 296.176 546.129 296.176C545.467 296.176 544.915 296.346 544.474 296.686C544.037 297.021 543.708 297.478 543.488 298.056C543.271 298.63 543.163 299.274 543.163 299.989C543.163 300.713 543.274 301.371 543.494 301.962C543.719 302.549 544.05 303.017 544.487 303.366C544.929 303.71 545.476 303.882 546.129 303.882ZM557.919 305.285C556.94 305.285 556.094 305.069 555.384 304.637C554.678 304.2 554.133 303.591 553.749 302.809C553.369 302.024 553.179 301.11 553.179 300.069C553.179 299.027 553.369 298.109 553.749 297.315C554.133 296.516 554.667 295.894 555.351 295.448C556.039 294.998 556.842 294.773 557.76 294.773C558.29 294.773 558.813 294.861 559.329 295.037C559.846 295.214 560.316 295.501 560.739 295.898C561.163 296.291 561.501 296.812 561.752 297.46C562.004 298.109 562.13 298.908 562.13 299.857V300.519H554.292V299.168H560.541C560.541 298.595 560.426 298.083 560.197 297.633C559.972 297.182 559.649 296.827 559.23 296.567C558.815 296.306 558.325 296.176 557.76 296.176C557.138 296.176 556.6 296.331 556.145 296.64C555.695 296.944 555.349 297.341 555.106 297.831C554.863 298.321 554.742 298.846 554.742 299.407V300.307C554.742 301.075 554.874 301.726 555.139 302.26C555.408 302.79 555.781 303.193 556.258 303.471C556.734 303.745 557.288 303.882 557.919 303.882C558.33 303.882 558.7 303.825 559.031 303.71C559.367 303.591 559.656 303.414 559.899 303.18C560.141 302.942 560.329 302.646 560.461 302.293L561.971 302.717C561.812 303.229 561.545 303.679 561.17 304.067C560.795 304.451 560.331 304.751 559.78 304.968C559.228 305.179 558.608 305.285 557.919 305.285Z" fill="#666666"/>
<mask id="path-10-inside-2_40_274" fill="white">
<path d="M328.284 335.858H828.958V410.426H328.284V335.858Z"/>
</mask>
<path d="M828.958 410.426V409.095H328.284V410.426V411.758H828.958V410.426Z" fill="#E3E7EF" mask="url(#path-10-inside-2_40_274)"/>
<path d="M363.704 379.267L373.092 369.88L371.227 368.015L363.704 375.539L359.909 371.744L358.045 373.608L363.704 379.267ZM365.568 386.458C363.726 386.458 361.995 386.108 360.375 385.409C358.755 384.71 357.346 383.761 356.147 382.563C354.949 381.364 354 379.955 353.301 378.335C352.602 376.715 352.252 374.984 352.252 373.142C352.252 371.3 352.602 369.569 353.301 367.949C354 366.329 354.949 364.919 356.147 363.721C357.346 362.523 358.755 361.574 360.375 360.875C361.995 360.176 363.726 359.826 365.568 359.826C367.41 359.826 369.141 360.176 370.761 360.875C372.381 361.574 373.791 362.523 374.989 363.721C376.188 364.919 377.136 366.329 377.835 367.949C378.534 369.569 378.884 371.3 378.884 373.142C378.884 374.984 378.534 376.715 377.835 378.335C377.136 379.955 376.188 381.364 374.989 382.563C373.791 383.761 372.381 384.71 370.761 385.409C369.141 386.108 367.41 386.458 365.568 386.458Z" fill="#77DE6D"/>
<path d="M404.494 379.642V366.084H409.075C410.135 366.084 411.004 366.265 411.684 366.627C412.363 366.984 412.866 367.476 413.193 368.103C413.52 368.73 413.683 369.443 413.683 370.241C413.683 371.04 413.52 371.749 413.193 372.366C412.866 372.984 412.366 373.47 411.69 373.823C411.015 374.171 410.152 374.346 409.102 374.346H405.395V372.863H409.049C409.773 372.863 410.355 372.757 410.797 372.545C411.242 372.333 411.565 372.033 411.763 371.645C411.966 371.252 412.068 370.784 412.068 370.241C412.068 369.699 411.966 369.224 411.763 368.818C411.56 368.412 411.236 368.099 410.79 367.878C410.344 367.653 409.755 367.54 409.022 367.54H406.136V379.642H404.494ZM410.876 373.551L414.213 379.642H412.306L409.022 373.551H410.876ZM422.615 375.484V369.473H424.177V379.642H422.615V377.921H422.509C422.271 378.437 421.9 378.876 421.397 379.238C420.894 379.596 420.258 379.774 419.49 379.774C418.855 379.774 418.29 379.635 417.796 379.357C417.301 379.075 416.913 378.651 416.631 378.086C416.348 377.517 416.207 376.8 416.207 375.935V369.473H417.769V375.829C417.769 376.57 417.977 377.162 418.391 377.603C418.811 378.044 419.345 378.265 419.994 378.265C420.382 378.265 420.777 378.166 421.179 377.967C421.585 377.768 421.924 377.464 422.198 377.053C422.476 376.643 422.615 376.12 422.615 375.484ZM428.601 373.525V379.642H427.039V369.473H428.548V371.062H428.681C428.919 370.546 429.281 370.131 429.766 369.818C430.252 369.5 430.879 369.341 431.647 369.341C432.335 369.341 432.937 369.482 433.454 369.765C433.97 370.043 434.372 370.466 434.659 371.036C434.946 371.601 435.089 372.316 435.089 373.181V379.642H433.527V373.287C433.527 372.488 433.319 371.865 432.904 371.42C432.489 370.97 431.92 370.744 431.196 370.744C430.698 370.744 430.252 370.853 429.859 371.069C429.471 371.285 429.164 371.601 428.939 372.016C428.714 372.43 428.601 372.934 428.601 373.525ZM450.39 371.751L448.986 372.148C448.898 371.914 448.768 371.687 448.596 371.466C448.428 371.241 448.198 371.056 447.907 370.91C447.616 370.764 447.243 370.692 446.788 370.692C446.166 370.692 445.647 370.835 445.233 371.122C444.822 371.404 444.617 371.764 444.617 372.201C444.617 372.589 444.758 372.896 445.041 373.121C445.323 373.346 445.764 373.534 446.365 373.684L447.874 374.055C448.783 374.275 449.461 374.613 449.906 375.067C450.352 375.518 450.575 376.098 450.575 376.808C450.575 377.391 450.407 377.912 450.072 378.371C449.741 378.83 449.277 379.192 448.682 379.456C448.086 379.721 447.393 379.854 446.603 379.854C445.566 379.854 444.707 379.629 444.028 379.178C443.348 378.728 442.918 378.071 442.737 377.206L444.22 376.835C444.361 377.382 444.628 377.793 445.021 378.066C445.418 378.34 445.936 378.477 446.576 378.477C447.305 378.477 447.883 378.322 448.311 378.013C448.743 377.7 448.96 377.325 448.96 376.888C448.96 376.535 448.836 376.239 448.589 376.001C448.342 375.758 447.962 375.577 447.45 375.458L445.756 375.061C444.824 374.84 444.14 374.498 443.703 374.035C443.271 373.567 443.055 372.982 443.055 372.28C443.055 371.707 443.216 371.199 443.538 370.758C443.864 370.316 444.308 369.97 444.868 369.718C445.433 369.467 446.073 369.341 446.788 369.341C447.795 369.341 448.585 369.562 449.158 370.003C449.736 370.444 450.147 371.027 450.39 371.751ZM455.919 379.88C455.275 379.88 454.69 379.759 454.165 379.516C453.639 379.269 453.222 378.914 452.913 378.45C452.605 377.982 452.45 377.418 452.45 376.755C452.45 376.173 452.565 375.701 452.794 375.339C453.024 374.972 453.331 374.686 453.715 374.478C454.098 374.271 454.522 374.116 454.986 374.015C455.453 373.909 455.923 373.825 456.396 373.763C457.014 373.684 457.514 373.624 457.898 373.584C458.287 373.54 458.569 373.468 458.746 373.366C458.927 373.265 459.017 373.088 459.017 372.836V372.783C459.017 372.13 458.838 371.623 458.481 371.261C458.128 370.899 457.592 370.718 456.872 370.718C456.126 370.718 455.542 370.881 455.118 371.208C454.694 371.534 454.396 371.883 454.224 372.254L452.741 371.724C453.006 371.106 453.359 370.625 453.801 370.281C454.246 369.932 454.732 369.69 455.257 369.553C455.787 369.412 456.307 369.341 456.819 369.341C457.146 369.341 457.521 369.381 457.945 369.46C458.373 369.535 458.785 369.692 459.183 369.93C459.584 370.169 459.918 370.528 460.182 371.009C460.447 371.49 460.58 372.135 460.58 372.942V379.642H459.017V378.265H458.938C458.832 378.486 458.655 378.722 458.408 378.973C458.161 379.225 457.832 379.439 457.422 379.615C457.011 379.792 456.51 379.88 455.919 379.88ZM456.157 378.477C456.775 378.477 457.296 378.355 457.72 378.113C458.148 377.87 458.47 377.557 458.686 377.173C458.907 376.789 459.017 376.385 459.017 375.961V374.531C458.951 374.611 458.805 374.683 458.58 374.75C458.36 374.811 458.104 374.867 457.812 374.915C457.525 374.959 457.245 374.999 456.972 375.034C456.702 375.065 456.484 375.092 456.316 375.114C455.91 375.167 455.531 375.253 455.178 375.372C454.829 375.487 454.546 375.661 454.33 375.895C454.118 376.124 454.012 376.438 454.012 376.835C454.012 377.378 454.213 377.788 454.615 378.066C455.021 378.34 455.535 378.477 456.157 378.477ZM463.431 379.642V369.473H464.94V371.062H465.073C465.285 370.519 465.627 370.098 466.099 369.798C466.571 369.493 467.138 369.341 467.8 369.341C468.471 369.341 469.029 369.493 469.475 369.798C469.925 370.098 470.276 370.519 470.528 371.062H470.634C470.894 370.537 471.285 370.12 471.805 369.811C472.326 369.498 472.951 369.341 473.679 369.341C474.588 369.341 475.332 369.626 475.91 370.195C476.488 370.76 476.777 371.64 476.777 372.836V379.642H475.215V372.836C475.215 372.086 475.01 371.55 474.599 371.228C474.189 370.906 473.705 370.744 473.149 370.744C472.434 370.744 471.881 370.961 471.488 371.393C471.095 371.821 470.899 372.364 470.899 373.022V379.642H469.31V372.678C469.31 372.099 469.122 371.634 468.747 371.281C468.372 370.923 467.889 370.744 467.297 370.744C466.891 370.744 466.512 370.853 466.159 371.069C465.81 371.285 465.527 371.585 465.311 371.969C465.099 372.349 464.993 372.788 464.993 373.287V379.642H463.431ZM479.634 383.455V369.473H481.143V371.089H481.328C481.443 370.912 481.602 370.687 481.805 370.413C482.013 370.135 482.308 369.888 482.692 369.672C483.081 369.451 483.606 369.341 484.268 369.341C485.124 369.341 485.879 369.555 486.532 369.983C487.185 370.411 487.695 371.018 488.061 371.804C488.427 372.589 488.611 373.516 488.611 374.584C488.611 375.661 488.427 376.594 488.061 377.384C487.695 378.17 487.187 378.779 486.538 379.212C485.89 379.64 485.142 379.854 484.294 379.854C483.641 379.854 483.118 379.746 482.725 379.529C482.332 379.309 482.03 379.059 481.818 378.781C481.606 378.499 481.443 378.265 481.328 378.08H481.196V383.455H479.634ZM481.17 374.558C481.17 375.326 481.282 376.003 481.507 376.59C481.732 377.173 482.061 377.629 482.494 377.96C482.926 378.287 483.456 378.45 484.082 378.45C484.736 378.45 485.281 378.278 485.718 377.934C486.159 377.585 486.49 377.117 486.711 376.53C486.936 375.939 487.048 375.281 487.048 374.558C487.048 373.843 486.938 373.198 486.717 372.625C486.501 372.046 486.172 371.59 485.731 371.254C485.294 370.914 484.744 370.744 484.082 370.744C483.447 370.744 482.913 370.906 482.48 371.228C482.048 371.546 481.721 371.991 481.501 372.565C481.28 373.134 481.17 373.799 481.17 374.558ZM492.556 366.084V379.642H490.994V366.084H492.556ZM499.681 379.854C498.701 379.854 497.856 379.637 497.145 379.205C496.439 378.768 495.894 378.159 495.51 377.378C495.131 376.592 494.941 375.679 494.941 374.637C494.941 373.596 495.131 372.678 495.51 371.883C495.894 371.084 496.428 370.462 497.112 370.016C497.801 369.566 498.604 369.341 499.522 369.341C500.052 369.341 500.575 369.429 501.091 369.606C501.607 369.782 502.077 370.069 502.501 370.466C502.925 370.859 503.262 371.38 503.514 372.029C503.766 372.678 503.891 373.476 503.891 374.425V375.087H496.053V373.737H502.302C502.302 373.163 502.188 372.651 501.958 372.201C501.733 371.751 501.411 371.395 500.992 371.135C500.577 370.875 500.087 370.744 499.522 370.744C498.9 370.744 498.361 370.899 497.907 371.208C497.457 371.512 497.11 371.91 496.867 372.399C496.625 372.889 496.503 373.415 496.503 373.975V374.875C496.503 375.643 496.636 376.294 496.9 376.828C497.17 377.358 497.543 377.762 498.019 378.04C498.496 378.313 499.05 378.45 499.681 378.45C500.091 378.45 500.462 378.393 500.793 378.278C501.129 378.159 501.418 377.982 501.66 377.749C501.903 377.51 502.091 377.214 502.223 376.861L503.732 377.285C503.574 377.797 503.307 378.247 502.931 378.636C502.556 379.02 502.093 379.32 501.541 379.536C500.989 379.748 500.369 379.854 499.681 379.854ZM515.933 369.473V370.797H510.664V369.473H515.933ZM512.199 367.037H513.762V376.729C513.762 377.17 513.826 377.501 513.954 377.722C514.086 377.938 514.254 378.084 514.457 378.159C514.664 378.23 514.883 378.265 515.112 378.265C515.284 378.265 515.426 378.256 515.536 378.238C515.646 378.216 515.735 378.199 515.801 378.185L516.119 379.589C516.013 379.629 515.865 379.668 515.675 379.708C515.485 379.752 515.245 379.774 514.953 379.774C514.512 379.774 514.08 379.679 513.656 379.49C513.237 379.3 512.888 379.011 512.61 378.622C512.336 378.234 512.199 377.744 512.199 377.153V367.037ZM522.437 379.854C521.458 379.854 520.612 379.637 519.902 379.205C519.196 378.768 518.651 378.159 518.267 377.378C517.887 376.592 517.697 375.679 517.697 374.637C517.697 373.596 517.887 372.678 518.267 371.883C518.651 371.084 519.185 370.462 519.869 370.016C520.557 369.566 521.361 369.341 522.279 369.341C522.808 369.341 523.331 369.429 523.847 369.606C524.364 369.782 524.834 370.069 525.258 370.466C525.681 370.859 526.019 371.38 526.27 372.029C526.522 372.678 526.648 373.476 526.648 374.425V375.087H518.81V373.737H525.059C525.059 373.163 524.944 372.651 524.715 372.201C524.49 371.751 524.167 371.395 523.748 371.135C523.333 370.875 522.843 370.744 522.279 370.744C521.656 370.744 521.118 370.899 520.663 371.208C520.213 371.512 519.867 371.91 519.624 372.399C519.381 372.889 519.26 373.415 519.26 373.975V374.875C519.26 375.643 519.392 376.294 519.657 376.828C519.926 377.358 520.299 377.762 520.776 378.04C521.252 378.313 521.806 378.45 522.437 378.45C522.848 378.45 523.219 378.393 523.55 378.278C523.885 378.159 524.174 377.982 524.417 377.749C524.66 377.51 524.847 377.214 524.98 376.861L526.489 377.285C526.33 377.797 526.063 378.247 525.688 378.636C525.313 379.02 524.849 379.32 524.298 379.536C523.746 379.748 523.126 379.854 522.437 379.854ZM536.227 371.751L534.824 372.148C534.735 371.914 534.605 371.687 534.433 371.466C534.265 371.241 534.036 371.056 533.744 370.91C533.453 370.764 533.08 370.692 532.626 370.692C532.003 370.692 531.485 370.835 531.07 371.122C530.66 371.404 530.454 371.764 530.454 372.201C530.454 372.589 530.596 372.896 530.878 373.121C531.16 373.346 531.602 373.534 532.202 373.684L533.711 374.055C534.621 374.275 535.298 374.613 535.744 375.067C536.189 375.518 536.412 376.098 536.412 376.808C536.412 377.391 536.245 377.912 535.909 378.371C535.578 378.83 535.115 379.192 534.519 379.456C533.923 379.721 533.23 379.854 532.44 379.854C531.403 379.854 530.545 379.629 529.865 379.178C529.185 378.728 528.755 378.071 528.574 377.206L530.057 376.835C530.198 377.382 530.465 377.793 530.858 378.066C531.255 378.34 531.774 378.477 532.414 378.477C533.142 378.477 533.72 378.322 534.148 378.013C534.581 377.7 534.797 377.325 534.797 376.888C534.797 376.535 534.673 376.239 534.426 376.001C534.179 375.758 533.8 375.577 533.288 375.458L531.593 375.061C530.662 374.84 529.978 374.498 529.541 374.035C529.108 373.567 528.892 372.982 528.892 372.28C528.892 371.707 529.053 371.199 529.375 370.758C529.702 370.316 530.145 369.97 530.706 369.718C531.271 369.467 531.911 369.341 532.626 369.341C533.632 369.341 534.422 369.562 534.996 370.003C535.574 370.444 535.984 371.027 536.227 371.751ZM543.186 369.473V370.797H537.917V369.473H543.186ZM539.453 367.037H541.015V376.729C541.015 377.17 541.079 377.501 541.207 377.722C541.339 377.938 541.507 378.084 541.71 378.159C541.918 378.23 542.136 378.265 542.365 378.265C542.538 378.265 542.679 378.256 542.789 378.238C542.899 378.216 542.988 378.199 543.054 378.185L543.372 379.589C543.266 379.629 543.118 379.668 542.928 379.708C542.738 379.752 542.498 379.774 542.207 379.774C541.765 379.774 541.333 379.679 540.909 379.49C540.49 379.3 540.141 379.011 539.863 378.622C539.589 378.234 539.453 377.744 539.453 377.153V367.037Z" fill="#666666"/>
<mask id="path-14-inside-3_40_274" fill="white">
<path d="M328.284 410.426H828.958V484.994H328.284V410.426Z"/>
</mask>
<path d="M828.958 484.994V483.663H328.284V484.994V486.326H828.958V484.994Z" fill="#E3E7EF" mask="url(#path-14-inside-3_40_274)"/>
<path d="M187.47 128.162L199.205 116.427L196.875 114.097L187.47 123.501L182.726 118.757L180.396 121.088L187.47 128.162ZM189.8 137.15C187.498 137.15 185.334 136.713 183.309 135.839C181.284 134.965 179.522 133.779 178.024 132.281C176.526 130.783 175.34 129.022 174.467 126.997C173.593 124.971 173.156 122.808 173.156 120.505C173.156 118.203 173.593 116.039 174.467 114.014C175.34 111.989 176.526 110.227 178.024 108.729C179.522 107.231 181.284 106.045 183.309 105.171C185.334 104.297 187.498 103.86 189.8 103.86C192.103 103.86 194.267 104.297 196.292 105.171C198.317 106.045 200.079 107.231 201.577 108.729C203.075 110.227 204.261 111.989 205.134 114.014C206.008 116.039 206.445 118.203 206.445 120.505C206.445 122.808 206.008 124.971 205.134 126.997C204.261 129.022 203.075 130.783 201.577 132.281C200.079 133.779 198.317 134.965 196.292 135.839C194.267 136.713 192.103 137.15 189.8 137.15Z" fill="#215CEB"/>
<path d="M245.496 116.51H242.394L249.364 97.1418H252.74L259.71 116.51H256.608L251.132 100.66H250.981L245.496 116.51ZM246.016 108.926H256.079V111.384H246.016V108.926ZM264.309 97.1418V116.51H261.481V97.1418H264.309ZM270.142 97.1418V116.51H267.314V97.1418H270.142ZM285.515 116.803C284.109 116.803 282.898 116.485 281.883 115.848C280.875 115.205 280.099 114.319 279.557 113.191C279.015 112.062 278.744 110.77 278.744 109.313C278.744 107.838 279.021 106.536 279.576 105.407C280.131 104.273 280.912 103.387 281.921 102.75C282.93 102.113 284.118 101.795 285.487 101.795C286.59 101.795 287.573 102 288.437 102.41C289.301 102.813 289.998 103.38 290.527 104.112C291.063 104.843 291.382 105.697 291.482 106.675H288.73C288.579 105.994 288.232 105.407 287.69 104.916C287.154 104.424 286.435 104.178 285.534 104.178C284.746 104.178 284.055 104.386 283.463 104.802C282.876 105.212 282.419 105.798 282.091 106.561C281.764 107.318 281.6 108.213 281.6 109.247C281.6 110.306 281.76 111.221 282.082 111.99C282.404 112.759 282.857 113.355 283.444 113.777C284.036 114.2 284.733 114.411 285.534 114.411C286.07 114.411 286.555 114.313 286.99 114.118C287.432 113.916 287.8 113.629 288.097 113.257C288.399 112.885 288.611 112.437 288.73 111.914H291.482C291.382 112.853 291.076 113.692 290.565 114.43C290.054 115.167 289.37 115.747 288.513 116.17C287.662 116.592 286.662 116.803 285.515 116.803ZM296.535 107.885V116.51H293.707V97.1418H296.497V104.348H296.677C297.018 103.566 297.538 102.945 298.238 102.485C298.937 102.025 299.852 101.795 300.98 101.795C301.976 101.795 302.846 102 303.59 102.41C304.341 102.819 304.921 103.431 305.33 104.244C305.747 105.051 305.955 106.06 305.955 107.271V116.51H303.127V107.611C303.127 106.545 302.853 105.72 302.304 105.133C301.756 104.541 300.993 104.244 300.015 104.244C299.347 104.244 298.748 104.386 298.219 104.67C297.695 104.954 297.282 105.37 296.98 105.918C296.683 106.46 296.535 107.116 296.535 107.885ZM315.19 116.803C313.759 116.803 312.526 116.498 311.492 115.886C310.464 115.268 309.67 114.401 309.109 113.285C308.554 112.163 308.277 110.849 308.277 109.342C308.277 107.854 308.554 106.542 309.109 105.407C309.67 104.273 310.452 103.387 311.454 102.75C312.463 102.113 313.642 101.795 314.991 101.795C315.811 101.795 316.605 101.93 317.374 102.201C318.144 102.473 318.834 102.898 319.446 103.478C320.057 104.058 320.539 104.812 320.893 105.738C321.246 106.659 321.422 107.778 321.422 109.096V110.098H309.875V107.98H318.651C318.651 107.236 318.5 106.577 318.197 106.003C317.895 105.423 317.469 104.966 316.92 104.632C316.378 104.298 315.741 104.131 315.01 104.131C314.216 104.131 313.522 104.326 312.93 104.717C312.343 105.102 311.889 105.606 311.568 106.23C311.252 106.848 311.095 107.52 311.095 108.245V109.9C311.095 110.871 311.265 111.697 311.606 112.377C311.952 113.058 312.435 113.579 313.052 113.938C313.67 114.291 314.392 114.467 315.218 114.467C315.754 114.467 316.243 114.392 316.684 114.241C317.125 114.083 317.507 113.85 317.828 113.541C318.15 113.232 318.396 112.85 318.566 112.396L321.242 112.879C321.028 113.667 320.643 114.357 320.089 114.95C319.54 115.536 318.85 115.993 318.018 116.321C317.192 116.643 316.249 116.803 315.19 116.803ZM329.879 116.803C328.473 116.803 327.263 116.485 326.248 115.848C325.239 115.205 324.464 114.319 323.921 113.191C323.379 112.062 323.108 110.77 323.108 109.313C323.108 107.838 323.385 106.536 323.94 105.407C324.495 104.273 325.277 103.387 326.286 102.75C327.294 102.113 328.483 101.795 329.851 101.795C330.954 101.795 331.938 102 332.802 102.41C333.665 102.813 334.362 103.38 334.892 104.112C335.428 104.843 335.746 105.697 335.847 106.675H333.095C332.944 105.994 332.597 105.407 332.055 104.916C331.519 104.424 330.8 104.178 329.898 104.178C329.11 104.178 328.42 104.386 327.827 104.802C327.241 105.212 326.784 105.798 326.456 106.561C326.128 107.318 325.964 108.213 325.964 109.247C325.964 110.306 326.125 111.221 326.446 111.99C326.768 112.759 327.222 113.355 327.808 113.777C328.401 114.2 329.098 114.411 329.898 114.411C330.434 114.411 330.92 114.313 331.355 114.118C331.796 113.916 332.165 113.629 332.461 113.257C332.764 112.885 332.975 112.437 333.095 111.914H335.847C335.746 112.853 335.44 113.692 334.93 114.43C334.419 115.167 333.735 115.747 332.877 116.17C332.026 116.592 331.027 116.803 329.879 116.803ZM340.673 111.583L340.654 108.131H341.146L346.933 101.984H350.319L343.718 108.982H343.273L340.673 111.583ZM338.072 116.51V97.1418H340.9V116.51H338.072ZM347.245 116.51L342.044 109.606L343.992 107.63L350.716 116.51H347.245ZM362.983 105.53L360.42 105.984C360.312 105.656 360.142 105.344 359.909 105.048C359.682 104.752 359.373 104.509 358.982 104.32C358.591 104.131 358.103 104.036 357.516 104.036C356.716 104.036 356.047 104.216 355.511 104.575C354.975 104.928 354.707 105.385 354.707 105.947C354.707 106.432 354.887 106.823 355.246 107.119C355.606 107.416 356.186 107.658 356.987 107.847L359.294 108.377C360.631 108.686 361.627 109.162 362.283 109.805C362.938 110.448 363.266 111.284 363.266 112.311C363.266 113.181 363.014 113.957 362.51 114.638C362.012 115.312 361.315 115.842 360.42 116.227C359.531 116.611 358.5 116.803 357.327 116.803C355.7 116.803 354.373 116.457 353.346 115.763C352.318 115.063 351.687 114.07 351.454 112.784L354.187 112.368C354.358 113.08 354.707 113.619 355.237 113.985C355.767 114.345 356.457 114.524 357.308 114.524C358.235 114.524 358.976 114.332 359.531 113.947C360.085 113.556 360.363 113.08 360.363 112.519C360.363 112.065 360.193 111.684 359.852 111.375C359.518 111.066 359.004 110.833 358.311 110.675L355.852 110.136C354.496 109.827 353.494 109.335 352.844 108.661C352.201 107.986 351.88 107.132 351.88 106.098C351.88 105.24 352.119 104.49 352.598 103.847C353.078 103.204 353.74 102.703 354.584 102.343C355.429 101.978 356.397 101.795 357.488 101.795C359.058 101.795 360.294 102.135 361.195 102.816C362.097 103.491 362.692 104.396 362.983 105.53ZM374.653 107.885V116.51H371.825V97.1418H374.615V104.348H374.795C375.135 103.566 375.656 102.945 376.355 102.485C377.055 102.025 377.969 101.795 379.098 101.795C380.094 101.795 380.964 102 381.708 102.41C382.458 102.819 383.039 103.431 383.448 104.244C383.864 105.051 384.073 106.06 384.073 107.271V116.51H381.245V107.611C381.245 106.545 380.971 105.72 380.422 105.133C379.874 104.541 379.111 104.244 378.133 104.244C377.465 104.244 376.866 104.386 376.337 104.67C375.813 104.954 375.4 105.37 375.098 105.918C374.801 106.46 374.653 107.116 374.653 107.885ZM391.274 116.832C390.354 116.832 389.522 116.662 388.778 116.321C388.034 115.974 387.444 115.473 387.009 114.817C386.58 114.162 386.366 113.358 386.366 112.406C386.366 111.586 386.524 110.912 386.839 110.382C387.154 109.852 387.58 109.433 388.116 109.124C388.652 108.815 389.251 108.582 389.913 108.424C390.575 108.267 391.249 108.147 391.936 108.065C392.806 107.964 393.513 107.882 394.055 107.819C394.597 107.75 394.991 107.639 395.237 107.488C395.483 107.337 395.606 107.091 395.606 106.75V106.684C395.606 105.858 395.373 105.218 394.906 104.764C394.446 104.31 393.759 104.083 392.844 104.083C391.892 104.083 391.142 104.295 390.593 104.717C390.051 105.133 389.676 105.597 389.468 106.107L386.811 105.502C387.126 104.619 387.586 103.907 388.191 103.365C388.803 102.816 389.506 102.419 390.3 102.173C391.095 101.921 391.93 101.795 392.806 101.795C393.387 101.795 394.001 101.864 394.651 102.003C395.306 102.135 395.918 102.381 396.485 102.741C397.059 103.1 397.529 103.614 397.894 104.282C398.26 104.944 398.443 105.805 398.443 106.864V116.51H395.681V114.524H395.568C395.385 114.89 395.111 115.249 394.745 115.602C394.38 115.955 393.91 116.249 393.336 116.482C392.762 116.715 392.075 116.832 391.274 116.832ZM391.889 114.562C392.671 114.562 393.339 114.408 393.894 114.099C394.455 113.79 394.881 113.386 395.171 112.888C395.467 112.384 395.615 111.845 395.615 111.271V109.398C395.514 109.499 395.319 109.594 395.029 109.682C394.745 109.764 394.421 109.837 394.055 109.9C393.689 109.956 393.333 110.01 392.986 110.06C392.639 110.105 392.349 110.142 392.116 110.174C391.568 110.243 391.066 110.36 390.612 110.524C390.165 110.688 389.805 110.924 389.534 111.233C389.269 111.536 389.137 111.939 389.137 112.444C389.137 113.143 389.396 113.673 389.913 114.032C390.43 114.386 391.088 114.562 391.889 114.562ZM413.317 101.984L408.049 116.51H405.023L399.746 101.984H402.782L406.461 113.162H406.612L410.281 101.984H413.317ZM420.942 116.803C419.511 116.803 418.278 116.498 417.244 115.886C416.217 115.268 415.422 114.401 414.861 113.285C414.306 112.163 414.029 110.849 414.029 109.342C414.029 107.854 414.306 106.542 414.861 105.407C415.422 104.273 416.204 103.387 417.207 102.75C418.215 102.113 419.394 101.795 420.744 101.795C421.563 101.795 422.358 101.93 423.127 102.201C423.896 102.473 424.586 102.898 425.198 103.478C425.809 104.058 426.292 104.812 426.645 105.738C426.998 106.659 427.174 107.778 427.174 109.096V110.098H415.627V107.98H424.403C424.403 107.236 424.252 106.577 423.95 106.003C423.647 105.423 423.221 104.966 422.673 104.632C422.131 104.298 421.494 104.131 420.762 104.131C419.968 104.131 419.275 104.326 418.682 104.717C418.096 105.102 417.642 105.606 417.32 106.23C417.005 106.848 416.847 107.52 416.847 108.245V109.9C416.847 110.871 417.017 111.697 417.358 112.377C417.705 113.058 418.187 113.579 418.805 113.938C419.423 114.291 420.145 114.467 420.971 114.467C421.506 114.467 421.995 114.392 422.436 114.241C422.878 114.083 423.259 113.85 423.581 113.541C423.902 113.232 424.148 112.85 424.318 112.396L426.995 112.879C426.78 113.667 426.396 114.357 425.841 114.95C425.292 115.536 424.602 115.993 423.77 116.321C422.944 116.643 422.001 116.803 420.942 116.803ZM435.762 121.958V101.984H438.524V104.339H438.76C438.924 104.036 439.16 103.686 439.469 103.289C439.778 102.892 440.207 102.545 440.755 102.249C441.304 101.946 442.029 101.795 442.931 101.795C444.103 101.795 445.15 102.091 446.07 102.684C446.991 103.276 447.713 104.131 448.236 105.247C448.766 106.363 449.031 107.706 449.031 109.275C449.031 110.845 448.769 112.191 448.246 113.314C447.722 114.43 447.004 115.29 446.089 115.896C445.175 116.494 444.132 116.794 442.959 116.794C442.076 116.794 441.354 116.646 440.793 116.349C440.238 116.053 439.803 115.706 439.488 115.309C439.173 114.912 438.93 114.559 438.76 114.25H438.59V121.958H435.762ZM438.533 109.247C438.533 110.268 438.681 111.164 438.977 111.933C439.274 112.702 439.703 113.304 440.264 113.739C440.825 114.168 441.512 114.382 442.325 114.382C443.17 114.382 443.876 114.159 444.444 113.711C445.011 113.257 445.44 112.642 445.73 111.867C446.026 111.091 446.174 110.218 446.174 109.247C446.174 108.289 446.029 107.428 445.739 106.665C445.456 105.902 445.027 105.3 444.453 104.859C443.886 104.418 443.176 104.197 442.325 104.197C441.506 104.197 440.812 104.408 440.245 104.831C439.684 105.253 439.258 105.842 438.968 106.599C438.678 107.356 438.533 108.238 438.533 109.247ZM455.627 116.832C454.707 116.832 453.874 116.662 453.13 116.321C452.386 115.974 451.797 115.473 451.362 114.817C450.933 114.162 450.719 113.358 450.719 112.406C450.719 111.586 450.876 110.912 451.192 110.382C451.507 109.852 451.932 109.433 452.468 109.124C453.004 108.815 453.603 108.582 454.265 108.424C454.927 108.267 455.602 108.147 456.289 108.065C457.159 107.964 457.865 107.882 458.408 107.819C458.95 107.75 459.344 107.639 459.59 107.488C459.836 107.337 459.959 107.091 459.959 106.75V106.684C459.959 105.858 459.725 105.218 459.259 104.764C458.798 104.31 458.111 104.083 457.197 104.083C456.245 104.083 455.495 104.295 454.946 104.717C454.404 105.133 454.029 105.597 453.821 106.107L451.163 105.502C451.479 104.619 451.939 103.907 452.544 103.365C453.156 102.816 453.859 102.419 454.653 102.173C455.447 101.921 456.283 101.795 457.159 101.795C457.739 101.795 458.354 101.864 459.003 102.003C459.659 102.135 460.271 102.381 460.838 102.741C461.412 103.1 461.882 103.614 462.247 104.282C462.613 104.944 462.796 105.805 462.796 106.864V116.51H460.034V114.524H459.921C459.738 114.89 459.464 115.249 459.098 115.602C458.732 115.955 458.263 116.249 457.689 116.482C457.115 116.715 456.428 116.832 455.627 116.832ZM456.242 114.562C457.024 114.562 457.692 114.408 458.247 114.099C458.808 113.79 459.233 113.386 459.523 112.888C459.82 112.384 459.968 111.845 459.968 111.271V109.398C459.867 109.499 459.672 109.594 459.382 109.682C459.098 109.764 458.773 109.837 458.408 109.9C458.042 109.956 457.686 110.01 457.339 110.06C456.992 110.105 456.702 110.142 456.469 110.174C455.92 110.243 455.419 110.36 454.965 110.524C454.517 110.688 454.158 110.924 453.887 111.233C453.622 111.536 453.49 111.939 453.49 112.444C453.49 113.143 453.748 113.673 454.265 114.032C454.782 114.386 455.441 114.562 456.242 114.562ZM476.648 105.53L474.085 105.984C473.978 105.656 473.808 105.344 473.575 105.048C473.348 104.752 473.039 104.509 472.648 104.32C472.257 104.131 471.768 104.036 471.182 104.036C470.381 104.036 469.713 104.216 469.177 104.575C468.641 104.928 468.373 105.385 468.373 105.947C468.373 106.432 468.553 106.823 468.912 107.119C469.272 107.416 469.852 107.658 470.652 107.847L472.96 108.377C474.297 108.686 475.293 109.162 475.949 109.805C476.604 110.448 476.932 111.284 476.932 112.311C476.932 113.181 476.68 113.957 476.176 114.638C475.677 115.312 474.981 115.842 474.085 116.227C473.196 116.611 472.166 116.803 470.993 116.803C469.366 116.803 468.039 116.457 467.011 115.763C465.984 115.063 465.353 114.07 465.12 112.784L467.853 112.368C468.023 113.08 468.373 113.619 468.903 113.985C469.433 114.345 470.123 114.524 470.974 114.524C471.901 114.524 472.642 114.332 473.196 113.947C473.751 113.556 474.029 113.08 474.029 112.519C474.029 112.065 473.858 111.684 473.518 111.375C473.184 111.066 472.67 110.833 471.977 110.675L469.518 110.136C468.162 109.827 467.16 109.335 466.51 108.661C465.867 107.986 465.546 107.132 465.546 106.098C465.546 105.24 465.785 104.49 466.264 103.847C466.744 103.204 467.406 102.703 468.25 102.343C469.095 101.978 470.063 101.795 471.154 101.795C472.724 101.795 473.959 102.135 474.861 102.816C475.763 103.491 476.358 104.396 476.648 105.53ZM490.127 105.53L487.565 105.984C487.457 105.656 487.287 105.344 487.054 105.048C486.827 104.752 486.518 104.509 486.127 104.32C485.736 104.131 485.248 104.036 484.661 104.036C483.86 104.036 483.192 104.216 482.656 104.575C482.12 104.928 481.852 105.385 481.852 105.947C481.852 106.432 482.032 106.823 482.391 107.119C482.751 107.416 483.331 107.658 484.132 107.847L486.439 108.377C487.776 108.686 488.772 109.162 489.428 109.805C490.083 110.448 490.411 111.284 490.411 112.311C490.411 113.181 490.159 113.957 489.655 114.638C489.157 115.312 488.46 115.842 487.565 116.227C486.676 116.611 485.645 116.803 484.472 116.803C482.845 116.803 481.518 116.457 480.491 115.763C479.463 115.063 478.832 114.07 478.599 112.784L481.332 112.368C481.502 113.08 481.852 113.619 482.382 113.985C482.912 114.345 483.602 114.524 484.453 114.524C485.38 114.524 486.121 114.332 486.676 113.947C487.23 113.556 487.508 113.08 487.508 112.519C487.508 112.065 487.338 111.684 486.997 111.375C486.663 111.066 486.149 110.833 485.456 110.675L482.997 110.136C481.641 109.827 480.639 109.335 479.989 108.661C479.346 107.986 479.025 107.132 479.025 106.098C479.025 105.24 479.264 104.49 479.743 103.847C480.223 103.204 480.885 102.703 481.729 102.343C482.574 101.978 483.542 101.795 484.633 101.795C486.203 101.795 487.438 102.135 488.34 102.816C489.242 103.491 489.837 104.396 490.127 105.53ZM498.982 116.803C497.551 116.803 496.318 116.498 495.284 115.886C494.257 115.268 493.462 114.401 492.901 113.285C492.346 112.163 492.069 110.849 492.069 109.342C492.069 107.854 492.346 106.542 492.901 105.407C493.462 104.273 494.244 103.387 495.246 102.75C496.255 102.113 497.434 101.795 498.783 101.795C499.603 101.795 500.397 101.93 501.167 102.201C501.936 102.473 502.626 102.898 503.238 103.478C503.849 104.058 504.332 104.812 504.685 105.738C505.038 106.659 505.214 107.778 505.214 109.096V110.098H493.667V107.98H502.443C502.443 107.236 502.292 106.577 501.989 106.003C501.687 105.423 501.261 104.966 500.713 104.632C500.17 104.298 499.534 104.131 498.802 104.131C498.008 104.131 497.314 104.326 496.722 104.717C496.135 105.102 495.681 105.606 495.36 106.23C495.045 106.848 494.887 107.52 494.887 108.245V109.9C494.887 110.871 495.057 111.697 495.398 112.377C495.745 113.058 496.227 113.579 496.845 113.938C497.463 114.291 498.184 114.467 499.01 114.467C499.546 114.467 500.035 114.392 500.476 114.241C500.918 114.083 501.299 113.85 501.621 113.541C501.942 113.232 502.188 112.85 502.358 112.396L505.035 112.879C504.82 113.667 504.436 114.357 503.881 114.95C503.332 115.536 502.642 115.993 501.81 116.321C500.984 116.643 500.041 116.803 498.982 116.803ZM512.991 116.794C511.818 116.794 510.771 116.494 509.851 115.896C508.937 115.29 508.218 114.43 507.695 113.314C507.178 112.191 506.919 110.845 506.919 109.275C506.919 107.706 507.181 106.363 507.704 105.247C508.234 104.131 508.959 103.276 509.879 102.684C510.8 102.091 511.843 101.795 513.01 101.795C513.911 101.795 514.636 101.946 515.185 102.249C515.74 102.545 516.168 102.892 516.471 103.289C516.78 103.686 517.02 104.036 517.19 104.339H517.36V97.1418H520.188V116.51H517.426V114.25H517.19C517.02 114.559 516.774 114.912 516.452 115.309C516.137 115.706 515.702 116.053 515.147 116.349C514.592 116.646 513.873 116.794 512.991 116.794ZM513.615 114.382C514.428 114.382 515.115 114.168 515.677 113.739C516.244 113.304 516.673 112.702 516.963 111.933C517.259 111.164 517.407 110.268 517.407 109.247C517.407 108.238 517.262 107.356 516.972 106.599C516.682 105.842 516.257 105.253 515.696 104.831C515.134 104.408 514.441 104.197 513.615 104.197C512.764 104.197 512.054 104.418 511.487 104.859C510.92 105.3 510.491 105.902 510.201 106.665C509.917 107.428 509.775 108.289 509.775 109.247C509.775 110.218 509.92 111.091 510.21 111.867C510.5 112.642 510.929 113.257 511.497 113.711C512.07 114.159 512.776 114.382 513.615 114.382Z" fill="#171717"/>
<path d="M242.818 141.719V140.369L248.776 130.942H249.755V133.034H249.093L244.592 140.157V140.263H252.615V141.719H242.818ZM249.199 144.5V141.309V140.68V130.942H250.762V144.5H249.199ZM267.568 136.609L266.165 137.006C266.077 136.772 265.946 136.545 265.774 136.324C265.607 136.099 265.377 135.914 265.086 135.768C264.795 135.622 264.422 135.549 263.967 135.549C263.345 135.549 262.826 135.693 262.411 135.98C262.001 136.262 261.796 136.622 261.796 137.059C261.796 137.447 261.937 137.754 262.219 137.979C262.502 138.204 262.943 138.392 263.543 138.542L265.053 138.912C265.962 139.133 266.639 139.471 267.085 139.925C267.531 140.375 267.754 140.956 267.754 141.666C267.754 142.249 267.586 142.77 267.251 143.229C266.92 143.688 266.456 144.05 265.86 144.314C265.265 144.579 264.572 144.712 263.782 144.712C262.745 144.712 261.886 144.487 261.207 144.036C260.527 143.586 260.097 142.929 259.916 142.064L261.398 141.693C261.54 142.24 261.807 142.651 262.2 142.924C262.597 143.198 263.115 143.335 263.755 143.335C264.483 143.335 265.062 143.18 265.49 142.871C265.922 142.558 266.138 142.183 266.138 141.746C266.138 141.393 266.015 141.097 265.768 140.859C265.521 140.616 265.141 140.435 264.629 140.316L262.934 139.919C262.003 139.698 261.319 139.356 260.882 138.893C260.45 138.425 260.233 137.84 260.233 137.138C260.233 136.565 260.394 136.057 260.717 135.616C261.043 135.174 261.487 134.828 262.047 134.576C262.612 134.325 263.252 134.199 263.967 134.199C264.973 134.199 265.763 134.42 266.337 134.861C266.915 135.302 267.326 135.885 267.568 136.609ZM276.514 140.342V134.331H278.076V144.5H276.514V142.779H276.408C276.17 143.295 275.799 143.734 275.296 144.096C274.793 144.453 274.157 144.632 273.389 144.632C272.754 144.632 272.189 144.493 271.694 144.215C271.2 143.933 270.812 143.509 270.529 142.944C270.247 142.375 270.106 141.658 270.106 140.793V134.331H271.668V140.687C271.668 141.428 271.875 142.019 272.29 142.461C272.709 142.902 273.243 143.123 273.892 143.123C274.281 143.123 274.676 143.023 275.077 142.825C275.483 142.626 275.823 142.322 276.097 141.911C276.375 141.501 276.514 140.978 276.514 140.342ZM285.069 144.712C284.115 144.712 283.294 144.487 282.606 144.036C281.917 143.586 281.388 142.966 281.017 142.176C280.646 141.386 280.461 140.484 280.461 139.469C280.461 138.436 280.651 137.524 281.03 136.734C281.414 135.94 281.948 135.32 282.632 134.874C283.321 134.424 284.124 134.199 285.042 134.199C285.757 134.199 286.401 134.331 286.975 134.596C287.549 134.861 288.019 135.232 288.385 135.708C288.752 136.185 288.979 136.741 289.067 137.377H287.505C287.386 136.913 287.121 136.503 286.71 136.145C286.304 135.783 285.757 135.602 285.069 135.602C284.459 135.602 283.925 135.761 283.466 136.079C283.012 136.392 282.657 136.836 282.401 137.41C282.149 137.979 282.023 138.648 282.023 139.416C282.023 140.201 282.147 140.885 282.394 141.468C282.646 142.05 282.999 142.503 283.453 142.825C283.912 143.147 284.451 143.308 285.069 143.308C285.475 143.308 285.843 143.238 286.174 143.096C286.505 142.955 286.785 142.752 287.015 142.487C287.244 142.222 287.408 141.905 287.505 141.534H289.067C288.979 142.134 288.76 142.675 288.412 143.156C288.067 143.633 287.611 144.012 287.041 144.295C286.476 144.573 285.819 144.712 285.069 144.712ZM295.482 144.712C294.529 144.712 293.708 144.487 293.019 144.036C292.331 143.586 291.801 142.966 291.43 142.176C291.06 141.386 290.874 140.484 290.874 139.469C290.874 138.436 291.064 137.524 291.444 136.734C291.828 135.94 292.362 135.32 293.046 134.874C293.734 134.424 294.537 134.199 295.455 134.199C296.17 134.199 296.815 134.331 297.388 134.596C297.962 134.861 298.432 135.232 298.799 135.708C299.165 136.185 299.392 136.741 299.48 137.377H297.918C297.799 136.913 297.534 136.503 297.124 136.145C296.718 135.783 296.17 135.602 295.482 135.602C294.873 135.602 294.339 135.761 293.88 136.079C293.425 136.392 293.07 136.836 292.814 137.41C292.562 137.979 292.437 138.648 292.437 139.416C292.437 140.201 292.56 140.885 292.807 141.468C293.059 142.05 293.412 142.503 293.867 142.825C294.326 143.147 294.864 143.308 295.482 143.308C295.888 143.308 296.256 143.238 296.587 143.096C296.918 142.955 297.199 142.752 297.428 142.487C297.658 142.222 297.821 141.905 297.918 141.534H299.48C299.392 142.134 299.174 142.675 298.825 143.156C298.481 143.633 298.024 144.012 297.455 144.295C296.89 144.573 296.232 144.712 295.482 144.712ZM306.028 144.712C305.048 144.712 304.203 144.495 303.492 144.063C302.786 143.626 302.241 143.017 301.857 142.236C301.477 141.45 301.288 140.537 301.288 139.495C301.288 138.453 301.477 137.535 301.857 136.741C302.241 135.942 302.775 135.32 303.459 134.874C304.148 134.424 304.951 134.199 305.869 134.199C306.398 134.199 306.921 134.287 307.438 134.464C307.954 134.64 308.424 134.927 308.848 135.324C309.272 135.717 309.609 136.238 309.861 136.887C310.112 137.535 310.238 138.334 310.238 139.283V139.945H302.4V138.595H308.649C308.649 138.021 308.534 137.509 308.305 137.059C308.08 136.609 307.758 136.253 307.338 135.993C306.924 135.733 306.434 135.602 305.869 135.602C305.247 135.602 304.708 135.757 304.253 136.066C303.803 136.37 303.457 136.768 303.214 137.257C302.971 137.747 302.85 138.272 302.85 138.833V139.733C302.85 140.501 302.982 141.152 303.247 141.686C303.516 142.216 303.889 142.62 304.366 142.898C304.843 143.171 305.397 143.308 306.028 143.308C306.438 143.308 306.809 143.251 307.14 143.136C307.475 143.017 307.764 142.84 308.007 142.606C308.25 142.368 308.437 142.072 308.57 141.719L310.079 142.143C309.92 142.655 309.653 143.105 309.278 143.494C308.903 143.877 308.44 144.178 307.888 144.394C307.336 144.606 306.716 144.712 306.028 144.712ZM319.817 136.609L318.414 137.006C318.326 136.772 318.195 136.545 318.023 136.324C317.856 136.099 317.626 135.914 317.335 135.768C317.043 135.622 316.671 135.549 316.216 135.549C315.594 135.549 315.075 135.693 314.66 135.98C314.25 136.262 314.045 136.622 314.045 137.059C314.045 137.447 314.186 137.754 314.468 137.979C314.751 138.204 315.192 138.392 315.792 138.542L317.302 138.912C318.211 139.133 318.888 139.471 319.334 139.925C319.78 140.375 320.003 140.956 320.003 141.666C320.003 142.249 319.835 142.77 319.5 143.229C319.168 143.688 318.705 144.05 318.109 144.314C317.513 144.579 316.821 144.712 316.031 144.712C314.993 144.712 314.135 144.487 313.455 144.036C312.776 143.586 312.345 142.929 312.164 142.064L313.647 141.693C313.789 142.24 314.056 142.651 314.448 142.924C314.846 143.198 315.364 143.335 316.004 143.335C316.732 143.335 317.31 143.18 317.739 142.871C318.171 142.558 318.387 142.183 318.387 141.746C318.387 141.393 318.264 141.097 318.017 140.859C317.769 140.616 317.39 140.435 316.878 140.316L315.183 139.919C314.252 139.698 313.568 139.356 313.131 138.893C312.698 138.425 312.482 137.84 312.482 137.138C312.482 136.565 312.643 136.057 312.965 135.616C313.292 135.174 313.736 134.828 314.296 134.576C314.861 134.325 315.501 134.199 316.216 134.199C317.222 134.199 318.012 134.42 318.586 134.861C319.164 135.302 319.575 135.885 319.817 136.609ZM329.557 136.609L328.154 137.006C328.065 136.772 327.935 136.545 327.763 136.324C327.595 136.099 327.366 135.914 327.075 135.768C326.783 135.622 326.41 135.549 325.956 135.549C325.333 135.549 324.815 135.693 324.4 135.98C323.99 136.262 323.784 136.622 323.784 137.059C323.784 137.447 323.926 137.754 324.208 137.979C324.49 138.204 324.932 138.392 325.532 138.542L327.041 138.912C327.951 139.133 328.628 139.471 329.074 139.925C329.52 140.375 329.742 140.956 329.742 141.666C329.742 142.249 329.575 142.77 329.239 143.229C328.908 143.688 328.445 144.05 327.849 144.314C327.253 144.579 326.56 144.712 325.77 144.712C324.733 144.712 323.875 144.487 323.195 144.036C322.515 143.586 322.085 142.929 321.904 142.064L323.387 141.693C323.528 142.24 323.795 142.651 324.188 142.924C324.585 143.198 325.104 143.335 325.744 143.335C326.472 143.335 327.05 143.18 327.478 142.871C327.911 142.558 328.127 142.183 328.127 141.746C328.127 141.393 328.004 141.097 327.756 140.859C327.509 140.616 327.13 140.435 326.618 140.316L324.923 139.919C323.992 139.698 323.308 139.356 322.871 138.893C322.438 138.425 322.222 137.84 322.222 137.138C322.222 136.565 322.383 136.057 322.705 135.616C323.032 135.174 323.475 134.828 324.036 134.576C324.601 134.325 325.241 134.199 325.956 134.199C326.962 134.199 327.752 134.42 328.326 134.861C328.904 135.302 329.314 135.885 329.557 136.609ZM336.622 134.331V135.655H331.141V134.331H336.622ZM332.783 144.5V132.928C332.783 132.345 332.919 131.86 333.193 131.471C333.467 131.083 333.822 130.792 334.259 130.598C334.696 130.403 335.157 130.306 335.643 130.306C336.026 130.306 336.34 130.337 336.583 130.399C336.825 130.461 337.006 130.518 337.125 130.571L336.675 131.922C336.596 131.895 336.485 131.862 336.344 131.822C336.207 131.783 336.026 131.763 335.801 131.763C335.285 131.763 334.912 131.893 334.683 132.153C334.458 132.414 334.345 132.795 334.345 133.299V144.5H332.783ZM345.22 140.342V134.331H346.782V144.5H345.22V142.779H345.114C344.876 143.295 344.505 143.734 344.002 144.096C343.499 144.453 342.863 144.632 342.095 144.632C341.46 144.632 340.895 144.493 340.401 144.215C339.906 143.933 339.518 143.509 339.236 142.944C338.953 142.375 338.812 141.658 338.812 140.793V134.331H340.374V140.687C340.374 141.428 340.582 142.019 340.997 142.461C341.416 142.902 341.95 143.123 342.599 143.123C342.987 143.123 343.382 143.023 343.784 142.825C344.19 142.626 344.529 142.322 344.803 141.911C345.081 141.501 345.22 140.978 345.22 140.342ZM351.206 130.942V144.5H349.644V130.942H351.206ZM363.442 144.712C362.489 144.712 361.668 144.487 360.979 144.036C360.291 143.586 359.761 142.966 359.39 142.176C359.02 141.386 358.834 140.484 358.834 139.469C358.834 138.436 359.024 137.524 359.404 136.734C359.788 135.94 360.322 135.32 361.006 134.874C361.694 134.424 362.497 134.199 363.415 134.199C364.13 134.199 364.775 134.331 365.348 134.596C365.922 134.861 366.392 135.232 366.758 135.708C367.125 136.185 367.352 136.741 367.44 137.377H365.878C365.759 136.913 365.494 136.503 365.084 136.145C364.678 135.783 364.13 135.602 363.442 135.602C362.833 135.602 362.299 135.761 361.84 136.079C361.385 136.392 361.03 136.836 360.774 137.41C360.522 137.979 360.397 138.648 360.397 139.416C360.397 140.201 360.52 140.885 360.767 141.468C361.019 142.05 361.372 142.503 361.827 142.825C362.286 143.147 362.824 143.308 363.442 143.308C363.848 143.308 364.216 143.238 364.547 143.096C364.878 142.955 365.159 142.752 365.388 142.487C365.618 142.222 365.781 141.905 365.878 141.534H367.44C367.352 142.134 367.134 142.675 366.785 143.156C366.441 143.633 365.984 144.012 365.415 144.295C364.85 144.573 364.192 144.712 363.442 144.712ZM371.287 138.383V144.5H369.724V130.942H371.287V135.92H371.419C371.657 135.395 372.015 134.978 372.491 134.669C372.973 134.356 373.612 134.199 374.411 134.199C375.104 134.199 375.711 134.338 376.232 134.616C376.753 134.89 377.156 135.311 377.443 135.88C377.735 136.445 377.88 137.165 377.88 138.039V144.5H376.318V138.144C376.318 137.337 376.108 136.712 375.689 136.271C375.274 135.825 374.698 135.602 373.961 135.602C373.449 135.602 372.99 135.711 372.584 135.927C372.183 136.143 371.865 136.459 371.631 136.873C371.401 137.288 371.287 137.791 371.287 138.383ZM385.002 144.712C384.022 144.712 383.177 144.495 382.466 144.063C381.76 143.626 381.215 143.017 380.831 142.236C380.452 141.45 380.262 140.537 380.262 139.495C380.262 138.453 380.452 137.535 380.831 136.741C381.215 135.942 381.749 135.32 382.433 134.874C383.122 134.424 383.925 134.199 384.843 134.199C385.372 134.199 385.895 134.287 386.412 134.464C386.928 134.64 387.398 134.927 387.822 135.324C388.246 135.717 388.583 136.238 388.835 136.887C389.086 137.535 389.212 138.334 389.212 139.283V139.945H381.374V138.595H387.623C387.623 138.021 387.509 137.509 387.279 137.059C387.054 136.609 386.732 136.253 386.313 135.993C385.898 135.733 385.408 135.602 384.843 135.602C384.221 135.602 383.682 135.757 383.228 136.066C382.777 136.37 382.431 136.768 382.188 137.257C381.945 137.747 381.824 138.272 381.824 138.833V139.733C381.824 140.501 381.957 141.152 382.221 141.686C382.491 142.216 382.863 142.62 383.34 142.898C383.817 143.171 384.371 143.308 385.002 143.308C385.412 143.308 385.783 143.251 386.114 143.136C386.449 143.017 386.738 142.84 386.981 142.606C387.224 142.368 387.411 142.072 387.544 141.719L389.053 142.143C388.894 142.655 388.627 143.105 388.252 143.494C387.877 143.877 387.414 144.178 386.862 144.394C386.31 144.606 385.69 144.712 385.002 144.712ZM395.72 144.712C394.766 144.712 393.945 144.487 393.257 144.036C392.568 143.586 392.039 142.966 391.668 142.176C391.297 141.386 391.112 140.484 391.112 139.469C391.112 138.436 391.302 137.524 391.681 136.734C392.065 135.94 392.599 135.32 393.283 134.874C393.972 134.424 394.775 134.199 395.693 134.199C396.408 134.199 397.052 134.331 397.626 134.596C398.2 134.861 398.67 135.232 399.036 135.708C399.403 136.185 399.63 136.741 399.718 137.377H398.156C398.037 136.913 397.772 136.503 397.361 136.145C396.955 135.783 396.408 135.602 395.72 135.602C395.111 135.602 394.577 135.761 394.118 136.079C393.663 136.392 393.308 136.836 393.052 137.41C392.8 137.979 392.674 138.648 392.674 139.416C392.674 140.201 392.798 140.885 393.045 141.468C393.297 142.05 393.65 142.503 394.104 142.825C394.563 143.147 395.102 143.308 395.72 143.308C396.126 143.308 396.494 143.238 396.825 143.096C397.156 142.955 397.436 142.752 397.666 142.487C397.895 142.222 398.059 141.905 398.156 141.534H399.718C399.63 142.134 399.411 142.675 399.063 143.156C398.719 143.633 398.262 144.012 397.692 144.295C397.127 144.573 396.47 144.712 395.72 144.712ZM403.458 140.793L403.432 138.859H403.75L408.198 134.331H410.132L405.392 139.124H405.259L403.458 140.793ZM402.002 144.5V130.942H403.564V144.5H402.002ZM408.463 144.5L404.491 139.469L405.603 138.383L410.449 144.5H408.463ZM419.345 136.609L417.942 137.006C417.853 136.772 417.723 136.545 417.551 136.324C417.383 136.099 417.154 135.914 416.862 135.768C416.571 135.622 416.198 135.549 415.744 135.549C415.121 135.549 414.603 135.693 414.188 135.98C413.778 136.262 413.572 136.622 413.572 137.059C413.572 137.447 413.714 137.754 413.996 137.979C414.278 138.204 414.72 138.392 415.32 138.542L416.829 138.912C417.739 139.133 418.416 139.471 418.862 139.925C419.307 140.375 419.53 140.956 419.53 141.666C419.53 142.249 419.363 142.77 419.027 143.229C418.696 143.688 418.233 144.05 417.637 144.314C417.041 144.579 416.348 144.712 415.558 144.712C414.521 144.712 413.663 144.487 412.983 144.036C412.303 143.586 411.873 142.929 411.692 142.064L413.175 141.693C413.316 142.24 413.583 142.651 413.976 142.924C414.373 143.198 414.892 143.335 415.532 143.335C416.26 143.335 416.838 143.18 417.266 142.871C417.699 142.558 417.915 142.183 417.915 141.746C417.915 141.393 417.791 141.097 417.544 140.859C417.297 140.616 416.918 140.435 416.406 140.316L414.711 139.919C413.78 139.698 413.096 139.356 412.659 138.893C412.226 138.425 412.01 137.84 412.01 137.138C412.01 136.565 412.171 136.057 412.493 135.616C412.82 135.174 413.263 134.828 413.824 134.576C414.389 134.325 415.029 134.199 415.744 134.199C416.75 134.199 417.54 134.42 418.114 134.861C418.692 135.302 419.102 135.885 419.345 136.609Z" fill="#666666"/>
<line x1="165.832" y1="235.99" x2="165.832" y2="327.868" stroke="#E3E7EF" stroke-width="2.66316"/>
<line x1="165.832" y1="208.026" x2="165.832" y2="237.321" stroke="#215CEB" stroke-width="2.66316"/>
<path d="M200.135 215.858H202.48V226.049C202.48 227.133 202.225 228.094 201.716 228.931C201.207 229.764 200.49 230.419 199.567 230.899C198.644 231.373 197.562 231.61 196.322 231.61C195.086 231.61 194.006 231.373 193.083 230.899C192.16 230.419 191.444 229.764 190.935 228.931C190.425 228.094 190.171 227.133 190.171 226.049V215.858H192.508V225.86C192.508 226.561 192.662 227.184 192.97 227.729C193.283 228.273 193.724 228.702 194.294 229.015C194.864 229.322 195.54 229.476 196.322 229.476C197.108 229.476 197.787 229.322 198.357 229.015C198.932 228.702 199.371 228.273 199.673 227.729C199.981 227.184 200.135 226.561 200.135 225.86V215.858ZM205.879 231.353V215.858H208.141V221.615H208.277C208.409 221.373 208.598 221.093 208.845 220.776C209.092 220.458 209.435 220.18 209.874 219.943C210.313 219.701 210.893 219.58 211.614 219.58C212.552 219.58 213.389 219.817 214.126 220.291C214.862 220.765 215.44 221.449 215.858 222.342C216.282 223.234 216.494 224.309 216.494 225.565C216.494 226.821 216.285 227.897 215.866 228.795C215.447 229.688 214.872 230.377 214.141 230.861C213.41 231.34 212.575 231.58 211.637 231.58C210.93 231.58 210.353 231.461 209.904 231.224C209.46 230.987 209.112 230.709 208.86 230.392C208.608 230.074 208.414 229.791 208.277 229.544H208.088V231.353H205.879ZM208.096 225.542C208.096 226.359 208.214 227.075 208.451 227.691C208.688 228.306 209.031 228.788 209.48 229.136C209.929 229.479 210.479 229.65 211.13 229.65C211.806 229.65 212.37 229.471 212.824 229.113C213.278 228.75 213.621 228.258 213.853 227.638C214.09 227.017 214.209 226.319 214.209 225.542C214.209 224.775 214.093 224.087 213.861 223.477C213.634 222.866 213.291 222.385 212.832 222.031C212.378 221.678 211.811 221.502 211.13 221.502C210.474 221.502 209.919 221.671 209.465 222.009C209.016 222.347 208.676 222.818 208.444 223.424C208.212 224.029 208.096 224.735 208.096 225.542ZM226.396 226.533V219.731H228.665V231.353H226.441V229.34H226.32C226.053 229.96 225.624 230.477 225.034 230.891C224.449 231.3 223.72 231.504 222.847 231.504C222.101 231.504 221.44 231.34 220.865 231.012C220.295 230.679 219.846 230.187 219.518 229.537C219.195 228.886 219.034 228.082 219.034 227.123V219.731H221.296V226.851C221.296 227.643 221.516 228.273 221.954 228.742C222.393 229.211 222.963 229.446 223.664 229.446C224.088 229.446 224.509 229.34 224.928 229.128C225.351 228.916 225.702 228.596 225.979 228.167C226.262 227.739 226.401 227.194 226.396 226.533ZM233.967 224.453V231.353H231.705V219.731H233.876V221.623H234.02C234.287 221.008 234.706 220.513 235.276 220.14C235.851 219.767 236.575 219.58 237.447 219.58C238.239 219.58 238.933 219.747 239.528 220.08C240.123 220.407 240.585 220.897 240.912 221.547C241.24 222.198 241.404 223.002 241.404 223.961V231.353H239.142V224.233C239.142 223.391 238.923 222.733 238.484 222.258C238.045 221.779 237.442 221.54 236.676 221.54C236.151 221.54 235.684 221.653 235.276 221.88C234.872 222.107 234.552 222.44 234.315 222.879C234.083 223.313 233.967 223.837 233.967 224.453ZM249.863 219.731V221.547H243.515V219.731H249.863ZM245.217 216.947H247.48V227.94C247.48 228.379 247.545 228.71 247.676 228.931C247.807 229.148 247.976 229.297 248.183 229.378C248.395 229.454 248.624 229.491 248.872 229.491C249.053 229.491 249.212 229.479 249.348 229.454C249.484 229.428 249.59 229.408 249.666 229.393L250.075 231.262C249.943 231.312 249.757 231.363 249.515 231.413C249.273 231.469 248.97 231.499 248.607 231.504C248.012 231.514 247.457 231.408 246.942 231.186C246.428 230.964 246.012 230.621 245.694 230.157C245.376 229.693 245.217 229.111 245.217 228.409V216.947ZM259.727 226.533V219.731H261.996V231.353H259.772V229.34H259.651C259.384 229.96 258.955 230.477 258.365 230.891C257.78 231.3 257.051 231.504 256.178 231.504C255.432 231.504 254.771 231.34 254.196 231.012C253.626 230.679 253.177 230.187 252.849 229.537C252.527 228.886 252.365 228.082 252.365 227.123V219.731H254.627V226.851C254.627 227.643 254.847 228.273 255.286 228.742C255.724 229.211 256.294 229.446 256.995 229.446C257.419 229.446 257.84 229.34 258.259 229.128C258.683 228.916 259.033 228.596 259.311 228.167C259.593 227.739 259.732 227.194 259.727 226.533Z" fill="#171717"/>
<path d="M193.159 276.995L188.922 261.5H190.829L194.067 274.12H194.218L197.517 261.5H199.635L202.934 274.12H203.085L206.324 261.5H208.23L203.993 276.995H202.056L198.637 264.648H198.516L195.096 276.995H193.159ZM210.326 276.995V265.374H212.111V276.995H210.326ZM211.234 263.437C210.886 263.437 210.586 263.318 210.333 263.081C210.086 262.844 209.963 262.559 209.963 262.226C209.963 261.894 210.086 261.609 210.333 261.372C210.586 261.134 210.886 261.016 211.234 261.016C211.582 261.016 211.879 261.134 212.126 261.372C212.379 261.609 212.505 261.894 212.505 262.226C212.505 262.559 212.379 262.844 212.126 263.081C211.879 263.318 211.582 263.437 211.234 263.437ZM217.167 270.004V276.995H215.382V265.374H217.107V267.19H217.258C217.53 266.599 217.944 266.125 218.499 265.767C219.054 265.404 219.77 265.223 220.647 265.223C221.434 265.223 222.123 265.384 222.713 265.707C223.303 266.024 223.762 266.509 224.09 267.159C224.418 267.805 224.582 268.622 224.582 269.611V276.995H222.796V269.732C222.796 268.819 222.559 268.108 222.085 267.598C221.611 267.084 220.96 266.826 220.133 266.826C219.563 266.826 219.054 266.95 218.605 267.197C218.161 267.444 217.81 267.805 217.553 268.279C217.296 268.753 217.167 269.328 217.167 270.004ZM232.233 277.237C231.264 277.237 230.409 276.992 229.668 276.503C228.926 276.009 228.346 275.313 227.928 274.415C227.509 273.512 227.3 272.445 227.3 271.215C227.3 269.994 227.509 268.935 227.928 268.037C228.346 267.139 228.929 266.446 229.675 265.956C230.422 265.467 231.284 265.223 232.263 265.223C233.019 265.223 233.617 265.349 234.056 265.601C234.5 265.848 234.838 266.13 235.07 266.448C235.307 266.761 235.491 267.018 235.622 267.22H235.773V261.5H237.559V276.995H235.834V275.209H235.622C235.491 275.421 235.304 275.689 235.062 276.011C234.82 276.329 234.475 276.614 234.026 276.866C233.577 277.113 232.979 277.237 232.233 277.237ZM232.475 275.633C233.191 275.633 233.796 275.446 234.29 275.073C234.785 274.695 235.161 274.173 235.418 273.507C235.675 272.836 235.804 272.062 235.804 271.184C235.804 270.317 235.678 269.558 235.425 268.907C235.173 268.251 234.8 267.742 234.306 267.379C233.811 267.011 233.201 266.826 232.475 266.826C231.718 266.826 231.088 267.021 230.583 267.409C230.084 267.792 229.708 268.314 229.456 268.975C229.209 269.631 229.085 270.367 229.085 271.184C229.085 272.012 229.211 272.763 229.463 273.439C229.721 274.11 230.099 274.644 230.598 275.043C231.103 275.436 231.728 275.633 232.475 275.633ZM245.798 277.237C244.749 277.237 243.828 276.987 243.037 276.488C242.25 275.989 241.634 275.29 241.19 274.392C240.752 273.494 240.532 272.445 240.532 271.245C240.532 270.034 240.752 268.978 241.19 268.075C241.634 267.172 242.25 266.471 243.037 265.972C243.828 265.472 244.749 265.223 245.798 265.223C246.847 265.223 247.765 265.472 248.552 265.972C249.344 266.471 249.959 267.172 250.398 268.075C250.842 268.978 251.064 270.034 251.064 271.245C251.064 272.445 250.842 273.494 250.398 274.392C249.959 275.29 249.344 275.989 248.552 276.488C247.765 276.987 246.847 277.237 245.798 277.237ZM245.798 275.633C246.595 275.633 247.251 275.429 247.765 275.02C248.28 274.612 248.66 274.074 248.908 273.409C249.155 272.743 249.278 272.022 249.278 271.245C249.278 270.468 249.155 269.744 248.908 269.073C248.66 268.403 248.28 267.86 247.765 267.447C247.251 267.033 246.595 266.826 245.798 266.826C245.001 266.826 244.345 267.033 243.831 267.447C243.316 267.86 242.936 268.403 242.688 269.073C242.441 269.744 242.318 270.468 242.318 271.245C242.318 272.022 242.441 272.743 242.688 273.409C242.936 274.074 243.316 274.612 243.831 275.02C244.345 275.429 245.001 275.633 245.798 275.633ZM256.027 276.995L252.486 265.374H254.363L256.874 274.271H256.995L259.477 265.374H261.384L263.835 274.241H263.956L266.468 265.374H268.344L264.803 276.995H263.048L260.506 268.067H260.324L257.782 276.995H256.027ZM278.936 267.976L277.332 268.43C277.231 268.163 277.083 267.903 276.886 267.651C276.694 267.394 276.432 267.182 276.099 267.016C275.766 266.849 275.34 266.766 274.82 266.766C274.109 266.766 273.517 266.93 273.042 267.258C272.573 267.581 272.339 267.992 272.339 268.491C272.339 268.935 272.5 269.285 272.823 269.543C273.146 269.8 273.65 270.014 274.336 270.186L276.061 270.609C277.1 270.862 277.874 271.247 278.384 271.767C278.893 272.281 279.148 272.945 279.148 273.757C279.148 274.423 278.956 275.018 278.573 275.542C278.195 276.067 277.665 276.48 276.984 276.783C276.303 277.086 275.511 277.237 274.609 277.237C273.423 277.237 272.442 276.98 271.665 276.465C270.889 275.951 270.397 275.199 270.19 274.211L271.885 273.787C272.046 274.412 272.351 274.881 272.8 275.194C273.254 275.507 273.847 275.663 274.578 275.663C275.411 275.663 276.071 275.487 276.561 275.134C277.055 274.776 277.302 274.347 277.302 273.848C277.302 273.444 277.161 273.106 276.878 272.834C276.596 272.556 276.162 272.349 275.577 272.213L273.64 271.759C272.576 271.507 271.794 271.116 271.295 270.587C270.8 270.052 270.553 269.384 270.553 268.582C270.553 267.926 270.737 267.346 271.106 266.842C271.479 266.337 271.986 265.941 272.626 265.654C273.272 265.366 274.003 265.223 274.82 265.223C275.97 265.223 276.873 265.475 277.529 265.979C278.19 266.483 278.659 267.149 278.936 267.976Z" fill="#666666"/>
<path d="M190.345 312.142H192.584L197.85 325.004H198.031L203.297 312.142H205.537V327.637H203.781V315.864H203.63L198.788 327.637H197.093L192.251 315.864H192.1V327.637H190.345V312.142ZM212.476 327.909C211.74 327.909 211.072 327.77 210.471 327.493C209.871 327.211 209.395 326.804 209.042 326.275C208.688 325.74 208.512 325.095 208.512 324.338C208.512 323.672 208.643 323.133 208.905 322.719C209.168 322.3 209.518 321.972 209.957 321.735C210.396 321.498 210.88 321.322 211.41 321.206C211.944 321.085 212.481 320.989 213.021 320.918C213.727 320.828 214.3 320.759 214.739 320.714C215.182 320.664 215.505 320.58 215.707 320.464C215.914 320.348 216.017 320.147 216.017 319.859V319.799C216.017 319.052 215.813 318.472 215.404 318.058C215.001 317.645 214.388 317.438 213.566 317.438C212.713 317.438 212.045 317.625 211.561 317.998C211.077 318.371 210.736 318.77 210.54 319.193L208.845 318.588C209.147 317.882 209.551 317.332 210.055 316.939C210.565 316.54 211.12 316.263 211.72 316.106C212.325 315.945 212.92 315.864 213.505 315.864C213.879 315.864 214.307 315.91 214.792 316.001C215.281 316.086 215.752 316.265 216.206 316.538C216.665 316.81 217.046 317.221 217.349 317.771C217.651 318.321 217.803 319.057 217.803 319.98V327.637H216.017V326.063H215.926C215.805 326.315 215.604 326.585 215.321 326.873C215.039 327.16 214.663 327.405 214.194 327.606C213.725 327.808 213.152 327.909 212.476 327.909ZM212.749 326.305C213.455 326.305 214.05 326.166 214.534 325.889C215.024 325.612 215.392 325.253 215.639 324.815C215.891 324.376 216.017 323.914 216.017 323.43V321.796C215.942 321.887 215.775 321.97 215.518 322.046C215.266 322.116 214.973 322.179 214.64 322.235C214.312 322.285 213.992 322.331 213.679 322.371C213.372 322.406 213.122 322.436 212.93 322.462C212.466 322.522 212.033 322.621 211.629 322.757C211.231 322.888 210.908 323.087 210.661 323.354C210.419 323.617 210.297 323.975 210.297 324.429C210.297 325.049 210.527 325.518 210.986 325.836C211.45 326.149 212.038 326.305 212.749 326.305ZM225.783 327.879C224.693 327.879 223.755 327.622 222.968 327.107C222.181 326.593 221.576 325.884 221.152 324.981C220.729 324.078 220.517 323.047 220.517 321.887C220.517 320.706 220.734 319.665 221.168 318.762C221.606 317.854 222.217 317.145 222.999 316.636C223.785 316.122 224.703 315.864 225.752 315.864C226.57 315.864 227.306 316.016 227.962 316.318C228.617 316.621 229.155 317.045 229.573 317.589C229.992 318.134 230.252 318.77 230.352 319.496H228.567C228.431 318.966 228.128 318.497 227.659 318.089C227.195 317.675 226.57 317.468 225.783 317.468C225.087 317.468 224.476 317.65 223.952 318.013C223.432 318.371 223.026 318.878 222.734 319.534C222.446 320.184 222.302 320.949 222.302 321.826C222.302 322.724 222.444 323.506 222.726 324.172C223.014 324.837 223.417 325.354 223.937 325.723C224.461 326.091 225.077 326.275 225.783 326.275C226.247 326.275 226.668 326.194 227.046 326.033C227.425 325.871 227.745 325.639 228.007 325.337C228.269 325.034 228.456 324.671 228.567 324.247H230.352C230.252 324.933 230.002 325.551 229.603 326.101C229.21 326.646 228.688 327.079 228.037 327.402C227.392 327.72 226.64 327.879 225.783 327.879ZM246.278 319.889C246.278 321.524 245.983 322.936 245.393 324.126C244.803 325.317 243.994 326.235 242.965 326.88C241.936 327.526 240.76 327.849 239.439 327.849C238.117 327.849 236.942 327.526 235.913 326.88C234.884 326.235 234.075 325.317 233.485 324.126C232.895 322.936 232.6 321.524 232.6 319.889C232.6 318.255 232.895 316.843 233.485 315.653C234.075 314.462 234.884 313.544 235.913 312.899C236.942 312.253 238.117 311.93 239.439 311.93C240.76 311.93 241.936 312.253 242.965 312.899C243.994 313.544 244.803 314.462 245.393 315.653C245.983 316.843 246.278 318.255 246.278 319.889ZM244.463 319.889C244.463 318.548 244.238 317.415 243.789 316.492C243.345 315.569 242.743 314.871 241.981 314.397C241.225 313.922 240.377 313.685 239.439 313.685C238.501 313.685 237.651 313.922 236.889 314.397C236.133 314.871 235.53 315.569 235.081 316.492C234.637 317.415 234.415 318.548 234.415 319.889C234.415 321.231 234.637 322.363 235.081 323.286C235.53 324.209 236.133 324.908 236.889 325.382C237.651 325.856 238.501 326.093 239.439 326.093C240.377 326.093 241.225 325.856 241.981 325.382C242.743 324.908 243.345 324.209 243.789 323.286C244.238 322.363 244.463 321.231 244.463 319.889ZM257.907 316.016C257.816 315.249 257.448 314.654 256.802 314.23C256.157 313.806 255.365 313.595 254.427 313.595C253.741 313.595 253.141 313.706 252.626 313.928C252.117 314.149 251.718 314.455 251.431 314.843C251.148 315.231 251.007 315.673 251.007 316.167C251.007 316.581 251.105 316.936 251.302 317.234C251.504 317.526 251.761 317.771 252.074 317.968C252.387 318.159 252.714 318.318 253.057 318.444C253.4 318.565 253.716 318.664 254.003 318.739L255.577 319.163C255.98 319.269 256.429 319.415 256.924 319.602C257.423 319.788 257.9 320.043 258.353 320.366C258.812 320.684 259.191 321.092 259.488 321.592C259.786 322.091 259.935 322.704 259.935 323.43C259.935 324.267 259.715 325.024 259.276 325.7C258.843 326.376 258.207 326.913 257.37 327.311C256.538 327.71 255.526 327.909 254.336 327.909C253.226 327.909 252.266 327.73 251.453 327.372C250.646 327.014 250.011 326.514 249.547 325.874C249.088 325.233 248.828 324.489 248.768 323.642H250.704C250.755 324.227 250.952 324.711 251.295 325.095C251.643 325.473 252.081 325.755 252.611 325.942C253.146 326.124 253.721 326.214 254.336 326.214C255.052 326.214 255.695 326.098 256.265 325.866C256.835 325.629 257.287 325.301 257.62 324.883C257.952 324.459 258.119 323.965 258.119 323.4C258.119 322.885 257.975 322.467 257.688 322.144C257.4 321.821 257.022 321.559 256.553 321.357C256.084 321.155 255.577 320.979 255.032 320.828L253.126 320.283C251.915 319.935 250.957 319.438 250.251 318.792C249.544 318.147 249.191 317.302 249.191 316.258C249.191 315.39 249.426 314.634 249.895 313.988C250.369 313.337 251.005 312.833 251.801 312.475C252.603 312.112 253.499 311.93 254.487 311.93C255.486 311.93 256.374 312.109 257.151 312.467C257.927 312.82 258.543 313.305 258.997 313.92C259.456 314.535 259.698 315.234 259.723 316.016H257.907Z" fill="#666666"/>
</g>
<line x1="164.5" y1="162.087" x2="701.126" y2="162.087" stroke="#E3E7EF" stroke-width="1.33158"/>
</g>
</g>
<defs>
<clipPath id="paint0_diamond_40_274_clip_path"><rect width="604" height="512"/></clipPath><linearGradient id="paint0_diamond_40_274" x1="0" y1="0" x2="500" y2="500" gradientUnits="userSpaceOnUse">
<stop stop-color="#BED0E5"/>
<stop offset="1" stop-color="#E8EEF6"/>
</linearGradient>
<clipPath id="clip0_40_274">
<path d="M0 7.99999C0 3.58172 3.58172 0 8 0H596C600.418 0 604 3.58172 604 8V422C604 426.418 600.418 430 596 430H8.00001C3.58173 430 0 426.418 0 422V7.99999Z" fill="white"/>
</clipPath>
<clipPath id="clip1_40_274">
<rect width="604" height="512" fill="white"/>
</clipPath>
<clipPath id="clip2_40_274">
<rect width="584.563" height="442.084" fill="white" transform="translate(140.532 65.5474)"/>
</clipPath>
</defs>
</svg>
